<svg xmlns="http://www.w3.org/2000/svg" viewBox="0 0 167.5 58.05"><title>experience logo</title><g id="Layer_2" data-name="Layer 2"><g id="Layer_1-2" data-name="Layer 1"><path d="M37.16,2A7.1,7.1,0,0,0,34.47.48,10,10,0,0,0,31.57,0,23.4,23.4,0,0,0,22,2a29,29,0,0,0-8.13,5.42,34.46,34.46,0,0,0-6.17,7.77,35.71,35.71,0,0,0-3.75,9,15.43,15.43,0,0,0-1.42,1.27A19.93,19.93,0,0,0,.79,27.33,2.83,2.83,0,0,0,0,29a.86.86,0,0,0,.33.7,1.18,1.18,0,0,0,.76.27c.4,0,.79-.34,1.18-1a9.39,9.39,0,0,1,.94-1.45,40.8,40.8,0,0,0-.55,6.72,12.17,12.17,0,0,0,5.23,10,9.5,9.5,0,0,0,5.53,1.7,20,20,0,0,0,6-1.06A37.72,37.72,0,0,0,26,41.94a36.27,36.27,0,0,0,5.93-4A20.42,20.42,0,0,0,36,33.38a1,1,0,0,0,.21-.36,1.41,1.41,0,0,0,.09-.49q0-.36-.3-.36a.43.43,0,0,0-.33.18l-.27.3a23.29,23.29,0,0,1-4.27,4.27,35.79,35.79,0,0,1-5.62,3.62,34.48,34.48,0,0,1-6.17,2.54,20.51,20.51,0,0,1-6,.94,7.32,7.32,0,0,1-4.53-1.45,9.66,9.66,0,0,1-3-3.72,10.87,10.87,0,0,1-1.06-4.68,36.57,36.57,0,0,1,.3-4.69,33.59,33.59,0,0,1,.91-4.57,30.51,30.51,0,0,1,5.44-3.08,67.7,67.7,0,0,1,7.1-2.75,71.12,71.12,0,0,1,7.35-2,30.67,30.67,0,0,1,6.17-.75,6.6,6.6,0,0,1,2.51.48,5.55,5.55,0,0,0,2,.48A1.43,1.43,0,0,0,37,17.2a.34.34,0,0,0,.27-.33c0-.32-.3-.58-.91-.79a12.67,12.67,0,0,0-2.14-.48c-.83-.12-1.6-.21-2.3-.27s-1.16-.09-1.36-.09a38.51,38.51,0,0,0-8.07.9,54.85,54.85,0,0,0-8.26,2.49,51.56,51.56,0,0,0-7.38,3.5,35.67,35.67,0,0,1,3.78-7.5A34.86,34.86,0,0,1,16.24,8.1a25.43,25.43,0,0,1,7.07-4.59,20.49,20.49,0,0,1,8.26-1.7A16.11,16.11,0,0,1,33.71,2,7.32,7.32,0,0,1,36,2.72a1.79,1.79,0,0,1,1,1.69,8,8,0,0,1-.76,3.9,4.93,4.93,0,0,0-.75,2,2.1,2.1,0,0,0,.09.51c.06.23.17.34.33.34.4,0,.75-.29,1-.85a9,9,0,0,0,.69-2.06c.19-.8.33-1.55.43-2.23a12,12,0,0,0,.15-1.39A3.49,3.49,0,0,0,37.16,2Z"/><path d="M47.35,26.15c.6-.86,1.21-1.71,1.81-2.54s1.29-1.8,2.06-2.93A1,1,0,0,0,51,20a.84.84,0,0,0-.64-.31,2.63,2.63,0,0,0-1.63,1,21.06,21.06,0,0,0-2,2.48c-.66,1-1.26,1.89-1.78,2.75s-.89,1.48-1.09,1.85a16.14,16.14,0,0,0-1.15-1.76,12.63,12.63,0,0,0-1.75-2,2.85,2.85,0,0,0-1.88-.88.74.74,0,0,0-.66.39,1.58,1.58,0,0,0-.24.82.91.91,0,0,0,.54.79A8.68,8.68,0,0,1,41.21,27a10.84,10.84,0,0,1,1.72,2.57A9.66,9.66,0,0,0,41.51,32c-.5,1.11-1,2.33-1.45,3.66s-.84,2.58-1.12,3.75a12.64,12.64,0,0,0-.42,2.78,7.92,7.92,0,0,0,.09,1.06q.09.63.63.63c.33,0,.52-.13.58-.39a3.2,3.2,0,0,0,.09-.7A13.36,13.36,0,0,1,41.21,37c.87-1.86,1.74-3.63,2.63-5.32.48,1.21,1,2.41,1.42,3.59s.92,2.39,1.36,3.6a3.47,3.47,0,0,0,.27.46.48.48,0,0,0,.4.21c.44,0,.66-.2.66-.61a7.76,7.76,0,0,0-.36-1.87c-.24-.85-.53-1.76-.88-2.72s-.68-1.88-1-2.72-.62-1.48-.82-1.88c.12-.2.41-.63.88-1.3Z"/><path d="M67.91,24.13a.27.27,0,0,0-.3-.3,2.78,2.78,0,0,0-.94.51c-.51.34-1,.7-1.51,1.06l-1,.72a7.74,7.74,0,0,0-2.27-4.8A20.82,20.82,0,0,0,57.63,18a6.52,6.52,0,0,0,.27-.64,1.86,1.86,0,0,0,.15-.63.83.83,0,0,0-.3-.67,1,1,0,0,0-.67-.24.75.75,0,0,0-.75.52c-.14.34-.27.65-.4.93a3.08,3.08,0,0,0-1-.18c-.49,0-.73.37-.73,1.09a3,3,0,0,0,.21,1,1,1,0,0,0,.7.69c-.73,2.63-1.41,5.4-2.06,8.32s-1.17,5.86-1.57,8.8a63.63,63.63,0,0,0-.6,8.58c0,.53,0,1.28.06,2.27s.13,2.06.27,3.21a25,25,0,0,0,.63,3.32A7.37,7.37,0,0,0,53.09,57a2.36,2.36,0,0,0,1.94,1,2.85,2.85,0,0,0,1.57-.66,7.06,7.06,0,0,0,1.57-1.61,3,3,0,0,0,.67-1.6q0-.42-.24-.42c-.21,0-.47.24-.79.72a17.27,17.27,0,0,1-1.09,1.46,1.78,1.78,0,0,1-1.39.72c-.69,0-1.22-.44-1.6-1.33a12.46,12.46,0,0,1-.85-3.17,32.33,32.33,0,0,1-.33-3.51c0-1.11-.06-1.89-.06-2.33a71,71,0,0,1,1.27-13.21A120,120,0,0,1,56.9,20.2a17,17,0,0,1,3.87,2.72,5.16,5.16,0,0,1,1.63,4.23v.42c-.64.53-1.47,1.31-2.47,2.33s-2,2.17-3.06,3.42A31.1,31.1,0,0,0,54.27,37a6.12,6.12,0,0,0-1.06,3c0,.65.35,1,1,1A6.08,6.08,0,0,0,58,39.49,14.3,14.3,0,0,0,61.2,36a20.9,20.9,0,0,0,2.2-4.38,11.9,11.9,0,0,0,.82-4,15.74,15.74,0,0,1,1.21-1c.6-.49,1.17-1,1.69-1.48S67.91,24.29,67.91,24.13Zm-6.78,8.16a29,29,0,0,1-1.72,3.3,12.36,12.36,0,0,1-2.21,2.78,3.62,3.62,0,0,1-2.47,1.12c-.17,0-.25,0-.25-.12a3.26,3.26,0,0,1,.67-1.27c.44-.65,1-1.38,1.66-2.21s1.36-1.67,2.09-2.54,1.38-1.63,2-2.3,1-1.12,1.24-1.36A16.21,16.21,0,0,1,61.13,32.29Z"/><path d="M81.63,27a.61.61,0,0,0-.54.27,3.19,3.19,0,0,0-.3.58c-.2.56-.53,1.37-1,2.41s-1,2.16-1.57,3.33a37,37,0,0,1-2,3.36,14.21,14.21,0,0,1-2.17,2.63,3.42,3.42,0,0,1-2.27,1,1.61,1.61,0,0,1-1.54-.85,4.77,4.77,0,0,1-.55-1.94c-.06-.72-.09-1.33-.09-1.81,0-1,0-1.94,0-2.93a28.64,28.64,0,0,1,.21-2.94A17.06,17.06,0,0,0,73.14,28a17.31,17.31,0,0,0,3.08-3.33,6.24,6.24,0,0,0,1.3-3.6,2.37,2.37,0,0,0-.93-2,5.27,5.27,0,0,0-2.09-.94.72.72,0,0,0,0-.82.87.87,0,0,0-.76-.39,1,1,0,0,0-.75.39c-.23.27-.44.5-.64.7-.48.08-.72.32-.72.73v.36a19.38,19.38,0,0,0-2.3,5,29.88,29.88,0,0,0-1.15,5.44,2,2,0,0,0-.64.27,1.09,1.09,0,0,0-.45.51c0,.37.24.55.73.55H68c0,.32-.07.72-.09,1.18s0,1,0,1.54a27.47,27.47,0,0,0,.3,3.9A9.3,9.3,0,0,0,69.33,41a2.76,2.76,0,0,0,2.51,1.45,4.11,4.11,0,0,0,2.6-1.21,18.45,18.45,0,0,0,2.75-3.08,36.15,36.15,0,0,0,2.48-3.93,29,29,0,0,0,1.78-3.84,8.5,8.5,0,0,0,.67-2.76C82.12,27.23,82,27,81.63,27ZM71.32,23.88a20.38,20.38,0,0,1,1.91-4.11,4.34,4.34,0,0,1,1.27.4,1.1,1.1,0,0,1,.72,1A5.67,5.67,0,0,1,74.44,24a10.85,10.85,0,0,1-1.94,2.48,15.1,15.1,0,0,1-2.29,1.81A28.88,28.88,0,0,1,71.32,23.88Z"/><path d="M94.15,18.56c-.28-.76-.72-1.14-1.33-1.14a2.64,2.64,0,0,0-1.9,1.27,19.37,19.37,0,0,0-2,3.23c-.66,1.31-1.28,2.68-1.84,4.11s-1,2.73-1.45,3.9-.69,2-.85,2.6c0-.4,0-.78,0-1.15s0-.74,0-1.15V28.45c0-.87,0-1.83-.09-2.9a28.36,28.36,0,0,0-.34-3.12A8.66,8.66,0,0,0,83.57,20a1.47,1.47,0,0,0-1.33-1,1.72,1.72,0,0,0-.61.15.52.52,0,0,0-.36.51.37.37,0,0,0,.06.21,2.18,2.18,0,0,1,.12.22,8.61,8.61,0,0,1,1.12,3.47,43.67,43.67,0,0,1,.42,4.6c.07,1.55.1,2.83.1,3.84,0,1.53-.08,3.07-.22,4.63s-.21,3.09-.21,4.62a1.14,1.14,0,0,0,.24.73.82.82,0,0,0,.67.3,1.39,1.39,0,0,0,1.33-.85,22.55,22.55,0,0,1,.7-5.35,57.13,57.13,0,0,1,1.69-5.71c.66-1.9,1.3-3.59,1.9-5.08A13.15,13.15,0,0,1,89.71,24c.26-.59.56-1.19.9-1.82a16.06,16.06,0,0,1,1-1.63c.34-.46.64-.7.88-.7s.43.35.57,1a14.67,14.67,0,0,1,.28,2.15c0,.75.06,1.22.06,1.42a5.23,5.23,0,0,1-.06.67,6.37,6.37,0,0,0-.06.9c0,.73.16,1.09.48,1.09s.61-.28.75-.85a9.23,9.23,0,0,0,.28-1.84c0-.67.06-1.14.06-1.42a19.72,19.72,0,0,0-.15-2A10.83,10.83,0,0,0,94.15,18.56Z"/><path d="M99.72,18.47a1.44,1.44,0,0,0,.78.22,1,1,0,0,0,1.09-.73c.12-.36.25-.85.39-1.45a12.85,12.85,0,0,1,.55-1.76,2.27,2.27,0,0,1,.81-1.14,1.29,1.29,0,0,0,.79-1.15c0-.41-.16-.61-.48-.61a2.07,2.07,0,0,0-1.36.73,9.86,9.86,0,0,0-1.43,1.75,13.38,13.38,0,0,0-1.08,2,4.18,4.18,0,0,0-.43,1.48A.67.67,0,0,0,99.72,18.47Z"/><path d="M121.06,27a.61.61,0,0,0-.54.27,4,4,0,0,0-.31.58c-.2.56-.52,1.37-1,2.41s-1,2.16-1.57,3.33-1.27,2.29-2,3.36a14.24,14.24,0,0,1-2.18,2.63,3.38,3.38,0,0,1-2.26,1,1.63,1.63,0,0,1-1.55-.85,4.93,4.93,0,0,1-.54-1.94c-.06-.72-.09-1.33-.09-1.81,0-1,0-1.94,0-2.93a28.64,28.64,0,0,1,.21-2.94,17.06,17.06,0,0,0,3.24-2.2,17.63,17.63,0,0,0,3.08-3.33A6.24,6.24,0,0,0,117,21a2.35,2.35,0,0,0-.94-2,5.17,5.17,0,0,0-2.08-.94.72.72,0,0,0,0-.82.89.89,0,0,0-.76-.39,1,1,0,0,0-.76.39,9.23,9.23,0,0,1-.63.7c-.48.08-.73.32-.73.73v.36a19.7,19.7,0,0,0-2.29,5c-.29.94-.53,1.86-.72,2.78a4.41,4.41,0,0,0-.8,1.27l-1.63,3.29c-.64,1.31-1.34,2.63-2.09,3.93a23.56,23.56,0,0,1-2.2,3.3c-.73.89-1.39,1.33-2,1.33-.44,0-.76-.29-1-.88a7.9,7.9,0,0,1-.39-1.9c-.06-.69-.09-1.17-.09-1.45a17,17,0,0,1,.45-3.66c.31-1.35.65-2.69,1-4s.72-2.52,1-3.57a10.07,10.07,0,0,0,.42-2.3,1,1,0,0,0-.36-.78,1.29,1.29,0,0,0-.85-.31c-.4,0-.78.43-1.15,1.27a17,17,0,0,0-.93,3.21c-.26,1.29-.49,2.61-.67,4s-.32,2.57-.42,3.66-.15,1.83-.15,2.24A22.69,22.69,0,0,0,96.39,38a7.12,7.12,0,0,0,.85,2.72,2.2,2.2,0,0,0,2.05,1.18,3.34,3.34,0,0,0,2.06-1.21,22.86,22.86,0,0,0,2.48-3.06,43.82,43.82,0,0,0,2.36-3.87c.44-.83.82-1.61,1.15-2.36,0,.2,0,.43,0,.67,0,.46,0,1,0,1.54a26.15,26.15,0,0,0,.31,3.9A9.3,9.3,0,0,0,108.76,41a2.76,2.76,0,0,0,2.51,1.45,4.11,4.11,0,0,0,2.6-1.21,18.9,18.9,0,0,0,2.75-3.08,37.74,37.74,0,0,0,2.48-3.93,30.35,30.35,0,0,0,1.78-3.84,8.77,8.77,0,0,0,.67-2.76C121.55,27.23,121.38,27,121.06,27Zm-10.31-3.15a19.85,19.85,0,0,1,1.91-4.11,4.44,4.44,0,0,1,1.27.4,1.1,1.1,0,0,1,.72,1,5.67,5.67,0,0,1-.78,2.79,10.85,10.85,0,0,1-1.94,2.48,15.15,15.15,0,0,1-2.3,1.81A28.94,28.94,0,0,1,110.75,23.88Z"/><path d="M152.75,29a1,1,0,0,0,0-.48.34.34,0,0,0-.37-.3c-.16,0-.45.39-.87,1.18s-1,1.77-1.6,3-1.37,2.37-2.15,3.54a16.43,16.43,0,0,1-2.45,2.93A3.76,3.76,0,0,1,142.77,40a2,2,0,0,1-1.78-1,6.15,6.15,0,0,1-.85-2.32,14.09,14.09,0,0,1-.21-2.15,15.22,15.22,0,0,1,.11-1.55,4.08,4.08,0,0,0,.31-1.23,5.22,5.22,0,0,0-.06-.55c.17-1.08.38-2.24.64-3.51a38.54,38.54,0,0,1,1.14-4.35,21.89,21.89,0,0,1,1.55-3.66,3.84,3.84,0,0,1,1.81-1.9q.36,0,.48.69a7.3,7.3,0,0,1,.13,1c0,.2,0,.49-.07.88a11.84,11.84,0,0,0-.06,1.24,3.61,3.61,0,0,0,.19,1.21.74.74,0,0,0,.78.54,1.19,1.19,0,0,0,.7-.33.89.89,0,0,0,.39-.64V20.47a18.24,18.24,0,0,0-.15-2.3,4.72,4.72,0,0,0-.64-2,1.63,1.63,0,0,0-1.51-.79A3.39,3.39,0,0,0,143,17a15.54,15.54,0,0,0-2.11,4.08,47.11,47.11,0,0,0-1.55,5.14c-.42,1.78-.73,3.4-.93,4.87a27.75,27.75,0,0,0-.3,3c-.29.54-.59,1.09-.91,1.66a29.11,29.11,0,0,1-1.64,2.57c-.52.72-.94,1.09-1.27,1.09s-.69-.3-.87-.88a9.83,9.83,0,0,1-.37-1.87C133,36,133,35.56,133,35.31a55.08,55.08,0,0,1,.28-5.62c.18-1.85.27-3.71.27-5.56a5.28,5.28,0,0,0-.39-1.73c-.27-.7-.68-1-1.24-1-.41,0-.93.43-1.58,1.3a31.41,31.41,0,0,0-2.08,3.26c-.75,1.31-1.46,2.67-2.15,4.08s-1.27,2.68-1.75,3.81-.81,1.92-1,2.36q.36-5.74.36-11.43a22.83,22.83,0,0,0-.15-2.54,7.17,7.17,0,0,0-.6-2.27,1.55,1.55,0,0,0-1.49-.93,1.27,1.27,0,0,0-.69.21.65.65,0,0,0-.33.57.89.89,0,0,0,.21.61,3,3,0,0,0,.45.42,2.57,2.57,0,0,1,.39,1.24c.1.67.19,1.41.25,2.24s.1,1.59.12,2.3,0,1.18,0,1.42a57.68,57.68,0,0,1-.4,6.8,60,60,0,0,0-.39,6.8,1.38,1.38,0,0,0,.21.76.79.79,0,0,0,1.21.09,2.83,2.83,0,0,0,.34-.48c.2-.45.55-1.31,1.05-2.6s1.1-2.75,1.79-4.39,1.38-3.21,2.08-4.75a34.67,34.67,0,0,1,2-3.8c.62-1,1.14-1.52,1.54-1.52.16,0,.26.23.3.67s.07.91.09,1.39,0,.79,0,.91a38.09,38.09,0,0,1-.21,4,38.09,38.09,0,0,0-.21,4,15.08,15.08,0,0,0,.18,2.09,5.81,5.81,0,0,0,.76,2.2,1.92,1.92,0,0,0,1.78,1A2.82,2.82,0,0,0,136,39.91,19.33,19.33,0,0,0,138,37c.12-.2.21-.38.32-.57.06.34.11.66.2,1a7.15,7.15,0,0,0,1.45,3,3.47,3.47,0,0,0,2.84,1.24A4.79,4.79,0,0,0,146,40.24a17.79,17.79,0,0,0,3-3.5,33.26,33.26,0,0,0,2.36-4.15,22.49,22.49,0,0,0,1.33-3.38Z"/><path d="M167,27a.63.63,0,0,0-.55.27,3.19,3.19,0,0,0-.3.58c-.2.56-.52,1.37-1,2.41s-1,2.16-1.57,3.33a36.9,36.9,0,0,1-2,3.36,14.24,14.24,0,0,1-2.18,2.63,3.4,3.4,0,0,1-2.27,1,1.62,1.62,0,0,1-1.54-.85,4.93,4.93,0,0,1-.54-1.94c-.06-.72-.09-1.33-.09-1.81,0-1,0-1.94,0-2.93a28.64,28.64,0,0,1,.21-2.94,17.34,17.34,0,0,0,3.23-2.2,17.37,17.37,0,0,0,3.09-3.33,6.31,6.31,0,0,0,1.3-3.6,2.37,2.37,0,0,0-.94-2,5.21,5.21,0,0,0-2.09-.94.72.72,0,0,0,0-.82.86.86,0,0,0-.75-.39,1,1,0,0,0-.76.39,9.23,9.23,0,0,1-.63.7c-.49.08-.73.32-.73.73v.36a19.72,19.72,0,0,0-2.3,5,30.75,30.75,0,0,0-1.15,5.44,1.87,1.87,0,0,0-.63.27,1.17,1.17,0,0,0-.46.51c0,.37.25.55.73.55h.18c0,.32-.07.72-.09,1.18s0,1,0,1.54a27.47,27.47,0,0,0,.3,3.9A9.47,9.47,0,0,0,154.71,41a2.77,2.77,0,0,0,2.51,1.45,4.09,4.09,0,0,0,2.6-1.21,18,18,0,0,0,2.75-3.08,34.68,34.68,0,0,0,2.48-3.93,30.51,30.51,0,0,0,1.79-3.84,8.69,8.69,0,0,0,.66-2.76Q167.5,27,167,27Zm-10.31-3.15a20.35,20.35,0,0,1,1.9-4.11,4.25,4.25,0,0,1,1.27.4,1.09,1.09,0,0,1,.73,1,5.58,5.58,0,0,1-.79,2.79,10.81,10.81,0,0,1-1.93,2.48,15.66,15.66,0,0,1-2.3,1.81A27.82,27.82,0,0,1,156.71,23.88Z"/></g></g></svg>