<svg xmlns="http://www.w3.org/2000/svg" viewBox="0 0 107 107"><defs><style>.cls-1{fill:#fff;}</style></defs><title>favicon</title><g id="Layer_2" data-name="Layer 2"><g id="Layer_1-2" data-name="Layer 1"><circle cx="53.5" cy="53.5" r="53.5"/><path class="cls-1" d="M25,77l-.4-.1a1.09,1.09,0,0,1-.81-.67A4.21,4.21,0,0,1,23.42,75a9,9,0,0,1-.09-1.11,12,12,0,0,1,.45-3.22,20.47,20.47,0,0,1,1.12-3.08A28.59,28.59,0,0,1,26.24,65c.44-.77.82-1.4,1.12-1.87a3.69,3.69,0,0,0,.44-.82.46.46,0,0,0-.21-.38.78.78,0,0,0-.42-.14.89.89,0,0,0-.37.18,5.07,5.07,0,0,0-.52.44,1.94,1.94,0,0,0-.38.43q-.12.18.09.18a.05.05,0,0,1,0,0,.54.54,0,0,1,0,.16.49.49,0,0,1-.05.18,42.55,42.55,0,0,0-2.41,5,14.47,14.47,0,0,0-1,5.44,11.77,11.77,0,0,0,.13,1.68,2.67,2.67,0,0,0,.63,1.38,2.05,2.05,0,0,0,1.56.55l.23,0a.2.2,0,0,0,.19-.11C25.26,77.18,25.16,77.1,25,77Z"/><path class="cls-1" d="M35.72,63.63a3.25,3.25,0,0,0-.53-1.86,4.46,4.46,0,0,0-1.39-1.3,8.46,8.46,0,0,0-1.89-.83,13.73,13.73,0,0,0-2.06-.43A14,14,0,0,0,28,59.08a16.47,16.47,0,0,0-2.13.16,16.68,16.68,0,0,0-2.51.51,9.29,9.29,0,0,0-2.29,1,3.83,3.83,0,0,0-1.46,1.54,1.12,1.12,0,0,1-.05.13.45.45,0,0,0,0,.13.51.51,0,0,0,0,.14.14.14,0,0,0,.12.08.23.23,0,0,0,.2-.1,1,1,0,0,0,.09-.17,3.58,3.58,0,0,1,1.49-1.27,9.87,9.87,0,0,1,2.26-.81,19.82,19.82,0,0,1,2.43-.4c.79-.08,1.46-.12,2-.12a17.44,17.44,0,0,1,2,.14,10.52,10.52,0,0,1,2.23.54,4.89,4.89,0,0,1,1.8,1.13,2.61,2.61,0,0,1,.72,1.9,2.56,2.56,0,0,1-.38,1.3,5.84,5.84,0,0,1-.93,1.17,7.92,7.92,0,0,1-1.08.87,19.69,19.69,0,0,1-3.66,2,21.28,21.28,0,0,1-4,1.16,1.55,1.55,0,0,0-.38.12.31.31,0,0,0-.25.3.11.11,0,0,0,.11.12h.15a10,10,0,0,0,2.37-.36,20.37,20.37,0,0,0,2.95-1,17.64,17.64,0,0,0,2.86-1.5,9,9,0,0,0,2.19-1.92A3.5,3.5,0,0,0,35.72,63.63Z"/><path class="cls-1" d="M42.37,71.31a.65.65,0,0,0-.39.22,3.13,3.13,0,0,1-.66.46,2.39,2.39,0,0,1-1.18.24l-.21,0a12,12,0,0,0,.23-2.39,4.66,4.66,0,0,0-.14-1,8.24,8.24,0,0,0-.41-1.28A3.55,3.55,0,0,0,39,66.39a1.19,1.19,0,0,0-.92-.45.57.57,0,0,0-.42.17,1.18,1.18,0,0,0-.23.41,1.39,1.39,0,0,0-1,.74,7.1,7.1,0,0,0-.75,1.7,19.34,19.34,0,0,0-.52,2.09c-.14.72-.24,1.37-.3,2a11.68,11.68,0,0,0-.1,1.27,9.13,9.13,0,0,0,.07.92A5.21,5.21,0,0,0,35,76.29a2.51,2.51,0,0,0,.51.91,1.06,1.06,0,0,0,.83.37A1.83,1.83,0,0,0,37.61,77a5,5,0,0,0,1-1.3,11.22,11.22,0,0,0,.73-1.58,12.11,12.11,0,0,0,.44-1.35,1.82,1.82,0,0,0,.68,0,4.16,4.16,0,0,0,.92-.27,3.74,3.74,0,0,0,.8-.45.72.72,0,0,0,.33-.57C42.53,71.37,42.48,71.31,42.37,71.31Zm-3.68,2.24c-.17.47-.39,1-.64,1.48a7.31,7.31,0,0,1-.81,1.32,1.12,1.12,0,0,1-.81.54c-.25,0-.44-.16-.58-.46a3.65,3.65,0,0,1-.28-1q-.06-.55-.06-.81a20.34,20.34,0,0,1,.17-2.45,16.81,16.81,0,0,1,.54-2.63,9.35,9.35,0,0,1,.92-2.23,6.2,6.2,0,0,0-.08,1,6,6,0,0,0,.49,2.37A4.08,4.08,0,0,0,39,72.49,8.41,8.41,0,0,1,38.69,73.55Zm.53-1.87a5,5,0,0,1-1.07-2,7.94,7.94,0,0,1-.33-2.2s0-.16,0-.31a1.5,1.5,0,0,1,.08-.44c0-.13.11-.19.19-.19s.34.14.5.42A4.43,4.43,0,0,1,39,68a10.63,10.63,0,0,1,.26,1.09,5.28,5.28,0,0,1,.1.72A11.7,11.7,0,0,1,39.22,71.68Z"/><path class="cls-1" d="M55.05,70.86v-.08c-.07,0-.2.21-.41.56s-.43.78-.69,1.28-.56,1-.87,1.52a8.6,8.6,0,0,1-.95,1.26,1.3,1.3,0,0,1-.92.51.56.56,0,0,1-.52-.34,2.61,2.61,0,0,1-.27-.83,8,8,0,0,1-.1-1c0-.33,0-.58,0-.78,0-1,0-2,.13-3s.2-2,.32-3c.77-.3,1.53-.57,2.27-.82a10.68,10.68,0,0,1,2.38-.47l.6-.08a3.05,3.05,0,0,0,.56-.16s-.09-.09-.28-.1a5.12,5.12,0,0,0-.56,0h-.4a11.59,11.59,0,0,0-2.24.21c-.71.14-1.46.33-2.23.55,0-.17.1-.49.2-.94s.21-1,.34-1.46.24-1,.33-1.36a4.93,4.93,0,0,0,.13-.66.38.38,0,0,0-.18-.31.62.62,0,0,0-.37-.13c-.12,0-.25.15-.37.46a8.51,8.51,0,0,0-.35,1.15c-.12.47-.22.95-.31,1.45s-.16,1-.22,1.34l-.12.8-.56.22c-.27.1-.56.23-.87.38a2.84,2.84,0,0,0-.52.3,3.65,3.65,0,0,0-.15-.5c-.12-.33-.32-.5-.58-.5a1.16,1.16,0,0,0-.83.55,8.68,8.68,0,0,0-.87,1.41c-.29.57-.55,1.17-.8,1.79s-.45,1.19-.63,1.69-.3.89-.37,1.14c0-.18,0-.35,0-.5s0-.33,0-.5v-.78c0-.38,0-.8,0-1.26s-.08-.92-.15-1.36a3.77,3.77,0,0,0-.31-1.08.65.65,0,0,0-.58-.42.89.89,0,0,0-.27.07.22.22,0,0,0-.15.22s0,.07,0,.09l.06.1a3.83,3.83,0,0,1,.48,1.51,18.81,18.81,0,0,1,.19,2c0,.67,0,1.23,0,1.67,0,.67,0,1.34-.1,2s-.09,1.35-.09,2a.5.5,0,0,0,.11.32.34.34,0,0,0,.29.13.59.59,0,0,0,.57-.37,10.11,10.11,0,0,1,.31-2.33,25,25,0,0,1,.73-2.48c.29-.83.57-1.56.83-2.21,0-.11.11-.29.23-.54s.24-.52.39-.79a6.27,6.27,0,0,1,.45-.71c.15-.2.27-.3.38-.3s.19.15.25.45a6.55,6.55,0,0,1,.12.93c0,.32,0,.53,0,.62s0,.16,0,.29a2.38,2.38,0,0,0,0,.39c0,.32.07.47.21.47s.27-.12.33-.36a4.92,4.92,0,0,0,.12-.81c0-.29,0-.49,0-.61s0-.2,0-.32a.34.34,0,0,0,.09-.08,3.24,3.24,0,0,1,.75-.6,6.23,6.23,0,0,1,.86-.42c-.09.94-.17,1.9-.25,2.86s-.12,1.92-.12,2.87c0,.26,0,.6,0,1a6.75,6.75,0,0,0,.23,1.24,2.58,2.58,0,0,0,.51,1,1.11,1.11,0,0,0,.92.41,1.49,1.49,0,0,0,1-.47,7.61,7.61,0,0,0,1-1.21,15.16,15.16,0,0,0,1-1.54,13.11,13.11,0,0,0,.7-1.51A3.61,3.61,0,0,0,55.05,70.86Z"/><path class="cls-1" d="M61.36,72.62c-.07,0-.2.13-.4.39l-.77.93c-.3.37-.64.74-1,1.12A6.68,6.68,0,0,1,58,76a2.73,2.73,0,0,1-1.29.46A3.47,3.47,0,0,0,56.3,76a3.81,3.81,0,0,0-.49-.39A12.32,12.32,0,0,1,56,73.27c.15-.76.28-1.54.41-2.33a1.22,1.22,0,0,0,.82-.49,7.29,7.29,0,0,0,.93-1.23c.3-.5.6-1,.88-1.55s.51-1,.71-1.46.32-.76.39-.95c.19-.51.36-1,.51-1.54s.28-1,.39-1.56l.09-.69c0-.23,0-.45,0-.68a5.74,5.74,0,0,0-.11-1,3.31,3.31,0,0,0-.37-1.07.83.83,0,0,0-.76-.47c-.3,0-.61.28-.95.83a12.45,12.45,0,0,0-1,2.16c-.33.88-.64,1.84-.94,2.86s-.56,2-.8,3-.43,1.82-.58,2.55-.24,1.23-.27,1.51l-.27,2c-.08.68-.15,1.37-.18,2a.45.45,0,0,0-.37.17.6.6,0,0,0-.13.38,1.14,1.14,0,0,0,.45.9c0,.24,0,.64,0,1.19s0,1.19.07,1.9.1,1.43.19,2.16.23,1.4.38,2a5.12,5.12,0,0,0,.62,1.53,1.13,1.13,0,0,0,.94.58A1,1,0,0,0,58,85.7a2.66,2.66,0,0,0,.46-1,8.12,8.12,0,0,0,.19-1.24c0-.4,0-.74,0-1a11.46,11.46,0,0,0-.33-2.76,7.06,7.06,0,0,0-1.17-2.5,4.81,4.81,0,0,0,1.06-.66,16.72,16.72,0,0,0,1.44-1.22A12.74,12.74,0,0,0,61,73.9a2,2,0,0,0,.51-1.09.27.27,0,0,0,0-.12A.08.08,0,0,0,61.36,72.62ZM57,67.42c.2-.91.43-1.85.71-2.8s.6-1.87.94-2.74a17.08,17.08,0,0,1,1.06-2.25.85.85,0,0,1,.17-.1.49.49,0,0,1,.2-.06q.28,0,.33.36a4.41,4.41,0,0,1,0,.51,8.09,8.09,0,0,1-.08,1.08q-.07.55-.18,1.08c-.06.28-.17.7-.33,1.25s-.37,1.16-.62,1.81-.52,1.3-.81,1.91a10.81,10.81,0,0,1-.93,1.58,2,2,0,0,1-.89.79A23.45,23.45,0,0,1,57,67.42Zm.33,11.66a9.33,9.33,0,0,1,.48,2.09A19.28,19.28,0,0,1,58,83.3c0,.23,0,.51,0,.85a3.33,3.33,0,0,1-.2.89.53.53,0,0,1-.5.39q-.32,0-.54-.54a6.47,6.47,0,0,1-.38-1.39A18.53,18.53,0,0,1,56,81.66c-.08-.66-.13-1.3-.16-1.92s-.06-1.17-.07-1.63,0-.78,0-.93l.47.1A5.06,5.06,0,0,1,57.35,79.08Z"/><path class="cls-1" d="M77.47,64.16a4,4,0,0,0-.61.76,5.92,5.92,0,0,0-.48.88,1.9,1.9,0,0,0-.18.64.29.29,0,0,0,.16.28.67.67,0,0,0,.34.09c.26,0,.42-.1.47-.31s.11-.37.17-.64a5.15,5.15,0,0,1,.24-.76,1.05,1.05,0,0,1,.35-.5.56.56,0,0,0,.35-.5c0-.17-.07-.26-.21-.26A.94.94,0,0,0,77.47,64.16Z"/><path class="cls-1" d="M87.3,71.31a.65.65,0,0,0-.4.22,2.8,2.8,0,0,1-.65.46,2.43,2.43,0,0,1-1.19.24l-.21,0a12,12,0,0,0,.24-2.39,4.78,4.78,0,0,0-.15-1,8.18,8.18,0,0,0-.4-1.28,4,4,0,0,0-.66-1.11,1.19,1.19,0,0,0-.92-.45.54.54,0,0,0-.42.17,1.06,1.06,0,0,0-.24.41,1.39,1.39,0,0,0-1,.74,7.1,7.1,0,0,0-.75,1.7c-.15.47-.27,1-.38,1.44a.18.18,0,0,0-.15-.06c-.07,0-.2.19-.39.58s-.43.86-.71,1.43-.59,1.14-.91,1.71a9.31,9.31,0,0,1-1,1.43c-.32.39-.6.58-.87.58s-.33-.13-.42-.38a3.49,3.49,0,0,1-.17-.83c0-.3,0-.51,0-.63a7.5,7.5,0,0,1,.2-1.59c.13-.59.28-1.17.45-1.75s.31-1.1.43-1.55a4.5,4.5,0,0,0,.18-1,.42.42,0,0,0-.15-.34.57.57,0,0,0-.37-.14c-.18,0-.34.19-.5.56a6.66,6.66,0,0,0-.41,1.39c-.07.35-.13.7-.19,1.06a2.37,2.37,0,0,0-.31.58l-.62,1.48c-.24.58-.51,1.17-.81,1.76a7.19,7.19,0,0,1-1,1.47,1.42,1.42,0,0,1-1.07.59.91.91,0,0,1-.8-.51A4,4,0,0,1,70.16,75a10.33,10.33,0,0,1-.18-1.4c0-.45,0-.78,0-1,0-.63,0-1.25.08-1.84a.88.88,0,0,0,.56-.23c.19-.15.34-.27.46-.38a8.64,8.64,0,0,0,1.7-2.33A17.9,17.9,0,0,0,73.9,65a18.87,18.87,0,0,0,.64-2.81,8.09,8.09,0,0,0,.08-1.08,6.31,6.31,0,0,0-.1-1,3.34,3.34,0,0,0-.4-1.11.92.92,0,0,0-.84-.48,1.46,1.46,0,0,0-.66.21.6.6,0,0,0-.39.52.54.54,0,0,0,.09.28.27.27,0,0,0,.25.14h.08l-.94,2q-.4.87-.72,1.68c-.21.54-.41,1.13-.59,1.76s-.37,1.37-.57,2.21a26.63,26.63,0,0,0-.57,4.09h0a.65.65,0,0,0-.4.22,2.8,2.8,0,0,1-.65.46,2.43,2.43,0,0,1-1.19.24l-.21,0A12,12,0,0,0,67,69.81a4.78,4.78,0,0,0-.15-1,8.18,8.18,0,0,0-.4-1.28,4,4,0,0,0-.66-1.11,1.19,1.19,0,0,0-.92-.45.54.54,0,0,0-.42.17,1.06,1.06,0,0,0-.24.41,1.39,1.39,0,0,0-1,.74,7.1,7.1,0,0,0-.75,1.7,19.35,19.35,0,0,0-.53,2.09c-.14.72-.24,1.37-.3,2s-.09,1-.09,1.27a8.74,8.74,0,0,0,.06.92,5.93,5.93,0,0,0,.25,1.09,2.68,2.68,0,0,0,.52.91,1,1,0,0,0,.83.37A1.86,1.86,0,0,0,64.47,77a5.18,5.18,0,0,0,1-1.3,11.29,11.29,0,0,0,.74-1.58,11.79,11.79,0,0,0,.43-1.35,1.87,1.87,0,0,0,.69,0,4.49,4.49,0,0,0,.92-.27,4,4,0,0,0,.8-.45,1.13,1.13,0,0,0,.19-.19c0,.24,0,.49,0,.73s0,.74,0,1.29a11.8,11.8,0,0,0,.24,1.64,3.65,3.65,0,0,0,.6,1.4,1.35,1.35,0,0,0,1.13.56A1.76,1.76,0,0,0,72.4,77a6.34,6.34,0,0,0,1.09-1.3A13.77,13.77,0,0,0,74.42,74c.21-.46.38-.88.52-1.28,0,.13,0,.27,0,.39-.05.48-.07.8-.07,1a10.5,10.5,0,0,0,.08,1.09,2.92,2.92,0,0,0,.37,1.18,1,1,0,0,0,.89.52,1.45,1.45,0,0,0,.9-.53A8.71,8.71,0,0,0,78.14,75a15.7,15.7,0,0,0,1-1.68,14.44,14.44,0,0,0,.69-1.47c-.06.4-.11.77-.15,1.13-.06.58-.09,1-.09,1.27a8.74,8.74,0,0,0,.06.92,5.93,5.93,0,0,0,.25,1.09,2.68,2.68,0,0,0,.52.91,1,1,0,0,0,.83.37A1.86,1.86,0,0,0,82.54,77a5.18,5.18,0,0,0,1-1.3,11.29,11.29,0,0,0,.74-1.58,11.79,11.79,0,0,0,.43-1.35,1.81,1.81,0,0,0,.68,0,4.4,4.4,0,0,0,.93-.27,4,4,0,0,0,.8-.45.72.72,0,0,0,.33-.57C87.46,71.37,87.4,71.31,87.3,71.31ZM70.36,68.56c.16-.74.35-1.56.58-2.46s.47-1.78.72-2.65a23.24,23.24,0,0,1,.78-2.29,4.68,4.68,0,0,1,.71-1.32.56.56,0,0,1,.14-.1.28.28,0,0,0,.12-.16.56.56,0,0,1,.4.51,6.61,6.61,0,0,1,0,.67,9.89,9.89,0,0,1-.2,1.59c-.13.71-.31,1.49-.55,2.34a25.06,25.06,0,0,1-.83,2.49,10.56,10.56,0,0,1-1,2,2.21,2.21,0,0,1-1.17,1C70.11,69.86,70.2,69.31,70.36,68.56Zm-4.81,5c-.18.47-.39,1-.65,1.48a7.31,7.31,0,0,1-.8,1.32,1.12,1.12,0,0,1-.82.54c-.24,0-.43-.16-.57-.46a3.34,3.34,0,0,1-.28-1c0-.37-.07-.64-.07-.81a20.34,20.34,0,0,1,.17-2.45,19.47,19.47,0,0,1,.54-2.63A10.25,10.25,0,0,1,64,67.29a6.24,6.24,0,0,0-.07,1,6.12,6.12,0,0,0,.48,2.37,4.1,4.1,0,0,0,1.49,1.84A10.53,10.53,0,0,1,65.55,73.55Zm.52-1.87a5,5,0,0,1-1.06-2,7.94,7.94,0,0,1-.33-2.2s0-.16,0-.31a1.91,1.91,0,0,1,.08-.44c0-.13.11-.19.2-.19s.34.14.5.42a4.94,4.94,0,0,1,.41,1,10.63,10.63,0,0,1,.26,1.09,4.83,4.83,0,0,1,.09.72A10.65,10.65,0,0,1,66.07,71.68Zm17.55,1.87c-.18.47-.39,1-.65,1.48a7.31,7.31,0,0,1-.8,1.32,1.12,1.12,0,0,1-.82.54c-.24,0-.43-.16-.57-.46a3.08,3.08,0,0,1-.28-1c0-.37-.07-.64-.07-.81a20.34,20.34,0,0,1,.17-2.45,19.47,19.47,0,0,1,.54-2.63,10.25,10.25,0,0,1,.92-2.23,6.24,6.24,0,0,0-.07,1,6.12,6.12,0,0,0,.48,2.37A4.1,4.1,0,0,0,84,72.49,10.53,10.53,0,0,1,83.62,73.55Zm.52-1.87a5,5,0,0,1-1.06-2,7.94,7.94,0,0,1-.33-2.2s0-.16,0-.31a1.91,1.91,0,0,1,.08-.44c0-.13.11-.19.2-.19s.34.14.5.42A4.94,4.94,0,0,1,84,68a10.63,10.63,0,0,1,.26,1.09,4.83,4.83,0,0,1,.09.72A10.65,10.65,0,0,1,84.14,71.68Z"/><path class="cls-1" d="M36.56,51.41l3-7.06A7.7,7.7,0,0,0,40,43c.09-.48.18-.87.25-1.16h.08c0,.28.08.64.15,1.07a5.34,5.34,0,0,0,.41,1.33l3.27,7.21H53.5L45.76,38.15l7.39-13H44.33l-3,6.91a10.63,10.63,0,0,0-.67,2.6h-.08A16.61,16.61,0,0,0,40,32.07l-2.55-6.95H27.85L35,38.3,27.14,51.41Z"/><path class="cls-1" d="M71.06,51.41l8.6-26.29H71.41L67.51,41.2a19.26,19.26,0,0,0-.57,3h-.19a16.92,16.92,0,0,0-.53-2.93l-4-16.19H53.68l8.49,26.29Z"/></g></g></svg>