<svg xmlns="http://www.w3.org/2000/svg" viewBox="0 0 1202.39 171.78"><defs><style>.cls-1{fill:#878787;}</style></defs><title>logo_1</title><g id="Layer_2" data-name="Layer 2"><g id="Layer_1-2" data-name="Layer 1"><path d="M87.44,116.41H78.09L43.76,62,9,116.41H0L39,56.16,3.49.51h9.27L44.08,50.37,75.63.51h9L48.84,56.08Z"/><path d="M189.08.51v75q0,13.55-5.23,23a34.82,34.82,0,0,1-15,14.46q-9.8,5-23.42,5-20.7,0-31.79-11.22t-11.1-31.59V.51h8.08V75.19q0,17.44,9.08,26.52t26.12,9.08q11.19,0,19-4a27.35,27.35,0,0,0,12-11.73q4.13-7.74,4.12-18.75V.51Z"/><path d="M293,116.41l-15.77-41H228.56l-16.1,41h-8.32L249.73.11h7.45l44.39,116.3ZM274.62,68.05l-16-43.44c-.43-1.11-.94-2.54-1.55-4.28s-1.24-3.59-1.9-5.55-1.31-3.81-1.95-5.55c-.52,1.85-1.11,3.7-1.74,5.55s-1.24,3.63-1.82,5.35-1.14,3.26-1.67,4.64L231.33,68.05Z"/><path d="M402.34,116.41H394L325.52,13.91h-.4q.17,4.28.28,8.68t.24,9q.11,4.64.11,9.55v75.23H318V.51h8.4L394.65,102.7H395c-.05-2.33-.11-5-.19-8.09s-.16-6.21-.24-9.43-.12-6.27-.12-9.12V.51h7.85Z"/><path d="M512.45.51l-42.8,115.9h-8.09L418.75.51h8.56L459,86.29q1.35,3.72,2.54,7.25t2.22,6.78q1,3.25,1.82,6.26.79-3,1.78-6.14c.67-2.09,1.39-4.31,2.19-6.66s1.66-4.88,2.61-7.57L503.81.51Z"/><path d="M528.79,116.41V.51H537v115.9Z"/><path d="M654.05,116.41h-8.33L577.23,13.91h-.4c.1,2.85.2,5.74.28,8.68s.15,5.94.23,9,.12,6.27.12,9.55v75.23h-7.77V.51h8.41L646.36,102.7h.39c0-2.33-.12-5-.2-8.09s-.15-6.21-.23-9.43-.12-6.27-.12-9.12V.51h7.85Z"/><path d="M770.82,116.41h-8.16V59.33H695v57.08h-8.17V.51H695V51.88h67.7V.51h8.16Z"/><path class="cls-1" d="M813.86,76a7.64,7.64,0,0,1-1-.09.65.65,0,0,1-.65-.73,2,2,0,0,1,1.54-1.86,16.1,16.1,0,0,1,2.35-.73,130.33,130.33,0,0,0,24.68-7.15,116.93,116.93,0,0,0,22.57-12.18A45.9,45.9,0,0,0,870,47.9a33.8,33.8,0,0,0,5.76-7.23,15.63,15.63,0,0,0,2.36-8,16,16,0,0,0-4.47-11.69,29.63,29.63,0,0,0-11.12-7,63.18,63.18,0,0,0-13.72-3.33,101.52,101.52,0,0,0-12.42-.89q-5,0-12.34.73a119.82,119.82,0,0,0-15,2.52,61.38,61.38,0,0,0-14,5,22.14,22.14,0,0,0-9.17,7.88,4.24,4.24,0,0,1-.57,1.05,1.4,1.4,0,0,1-1.22.57.77.77,0,0,1-.73-.49,1.9,1.9,0,0,1-.24-.81,2.6,2.6,0,0,1,.16-.81,7.2,7.2,0,0,1,.32-.81,22.85,22.85,0,0,1,9-9.5A55.7,55.7,0,0,1,806.8,9a109.81,109.81,0,0,1,15.51-3.17,107.5,107.5,0,0,1,13.15-1,90.45,90.45,0,0,1,11.36.81,83.19,83.19,0,0,1,12.67,2.68,49.58,49.58,0,0,1,11.69,5.12,27.32,27.32,0,0,1,8.6,8A20,20,0,0,1,883,33a21.52,21.52,0,0,1-5.2,13.64,55.81,55.81,0,0,1-13.47,11.85,109.15,109.15,0,0,1-17.7,9.25,129.92,129.92,0,0,1-18.19,6.09A62.49,62.49,0,0,1,813.86,76ZM816,118.2q-6.5,0-9.58-3.41a16.16,16.16,0,0,1-3.89-8.52A64.67,64.67,0,0,1,801.68,96a89,89,0,0,1,6.42-33.61A259.51,259.51,0,0,1,823,31.5a2.57,2.57,0,0,0,.33-1.14,3.33,3.33,0,0,0-.08-1,.28.28,0,0,0-.25-.17c-.86,0-1.05-.37-.56-1.13a15.31,15.31,0,0,1,2.35-2.68A27.57,27.57,0,0,1,828,22.73a5.35,5.35,0,0,1,2.27-1.14,4.54,4.54,0,0,1,2.6.9,2.74,2.74,0,0,1,1.3,2.35q0,.64-2.76,5T824.5,41.4q-4.14,7.16-8.28,16.16a124.34,124.34,0,0,0-6.9,19,74,74,0,0,0-2.76,19.89,52.89,52.89,0,0,0,.56,6.82,26.27,26.27,0,0,0,2.2,7.71,6.77,6.77,0,0,0,5,4.14c.54.11,1.35.33,2.43.65s1.68.87,1.79,1.63a1.35,1.35,0,0,1-1.14.73C816.89,118.17,816.4,118.2,816,118.2Z"/><path class="cls-1" d="M886.92,119a6.57,6.57,0,0,1-5.11-2.27,16.06,16.06,0,0,1-3.17-5.6,33.35,33.35,0,0,1-1.54-6.74,49.89,49.89,0,0,1-.41-5.68c0-1.63.19-4.25.57-7.88s1-7.66,1.87-12.09a122.42,122.42,0,0,1,3.25-12.91A44.15,44.15,0,0,1,887,55.37c1.79-2.82,3.87-4.33,6.26-4.55a6.79,6.79,0,0,1,1.46-2.52,3.36,3.36,0,0,1,2.59-1A7.39,7.39,0,0,1,903,50a23.44,23.44,0,0,1,4.06,6.82,53.42,53.42,0,0,1,2.51,8,29.51,29.51,0,0,1,.9,6.33A74.76,74.76,0,0,1,909,85.89l1.3.16a15.11,15.11,0,0,0,7.31-1.46,20.92,20.92,0,0,0,4.06-2.84,4,4,0,0,1,2.43-1.38c.65,0,1,.38,1,1.14a4.4,4.4,0,0,1-2,3.49,22.53,22.53,0,0,1-4.95,2.76,26.89,26.89,0,0,1-5.69,1.7,11.32,11.32,0,0,1-4.22.16A70.43,70.43,0,0,1,905.51,98a71.92,71.92,0,0,1-4.54,9.74,31.6,31.6,0,0,1-6.25,8A11.35,11.35,0,0,1,886.92,119Zm.49-4.22q2.43,0,5-3.33a46.57,46.57,0,0,0,5-8.12,99.84,99.84,0,0,0,4-9.17,61.56,61.56,0,0,0,2.12-6.5,25.27,25.27,0,0,1-9.18-11.36,37.39,37.39,0,0,1-3-14.61,36.91,36.91,0,0,1,.49-6.17,60,60,0,0,0-5.69,13.8,109.39,109.39,0,0,0-3.33,16.23,121,121,0,0,0-1,15.1,47.16,47.16,0,0,0,.4,5,20.73,20.73,0,0,0,1.71,6.25Q885.13,114.79,887.41,114.79Zm17.21-32.15a68.06,68.06,0,0,0,1-11.53,30.44,30.44,0,0,0-.56-4.46,62.26,62.26,0,0,0-1.63-6.74,29.87,29.87,0,0,0-2.51-6.17c-1-1.73-2-2.6-3.09-2.6-.54,0-.95.41-1.22,1.22A10.13,10.13,0,0,0,896.1,55c-.06,1-.08,1.62-.08,2a48.82,48.82,0,0,0,2,13.56A30.14,30.14,0,0,0,904.62,82.64Z"/><path class="cls-1" d="M929.3,115.93a2.16,2.16,0,0,1-1.79-.82,3,3,0,0,1-.65-1.94q0-6.18.57-12.42T928,88.33q0-4.06-.24-10.31a119.78,119.78,0,0,0-1.14-12.35,23.7,23.7,0,0,0-3-9.33,4.8,4.8,0,0,0-.33-.57,1,1,0,0,1-.16-.57,1.4,1.4,0,0,1,1-1.38,4.4,4.4,0,0,1,1.63-.4c1.51,0,2.7.86,3.57,2.6a23.3,23.3,0,0,1,2,6.65,82.9,82.9,0,0,1,.89,8.36c.16,2.87.25,5.47.25,7.8v4.79c0,1.08,0,2.11.08,3.08s.08,2,.08,3.09c.43-1.52,1.19-3.84,2.27-7s2.38-6.62,3.9-10.47,3.16-7.52,4.95-11A52,52,0,0,1,949,52.61c1.78-2.28,3.49-3.41,5.11-3.41s2.81,1,3.57,3.08a29,29,0,0,1,1.55,6.66c.26,2.38.4,4.17.4,5.36,0,.75,0,2-.16,3.81a27.12,27.12,0,0,1-.73,5c-.38,1.52-1.06,2.28-2,2.28s-1.3-1-1.3-2.93A17,17,0,0,1,955.6,70a13.36,13.36,0,0,0,.17-1.79c0-.54-.06-1.81-.17-3.81a39.2,39.2,0,0,0-.73-5.77c-.38-1.84-.89-2.76-1.54-2.76s-1.44.63-2.35,1.87a37,37,0,0,0-2.76,4.38c-.93,1.68-1.74,3.31-2.44,4.87s-1.16,2.68-1.38,3.33q-2.43,6-5.11,13.64a157.69,157.69,0,0,0-4.55,15.34,61.14,61.14,0,0,0-1.87,14.37A3.76,3.76,0,0,1,929.3,115.93Z"/><path class="cls-1" d="M978.33,113.65a7,7,0,0,1-5.68-2.51,16.65,16.65,0,0,1-3.17-6.34,42.36,42.36,0,0,1-1.38-7.63q-.32-3.81-.32-6.25,0-8.76.73-17.69t1.54-17.7a42.29,42.29,0,0,0-5.27,2.6,19.87,19.87,0,0,0-4.63,3.73,9.58,9.58,0,0,1-.73.65,1.63,1.63,0,0,1-1.06.32,3,3,0,0,1-2.19-1.13,3.4,3.4,0,0,1-1-2.28c0-1,.64-2,1.94-3a26.14,26.14,0,0,1,4.79-2.92c1.9-.92,3.68-1.71,5.36-2.36s2.84-1.08,3.49-1.3c.11-.86.35-2.51.73-5s.84-5.19,1.38-8.28,1.16-6.06,1.87-8.93a54,54,0,0,1,2.19-7.14c.76-1.89,1.52-2.84,2.27-2.84a3.92,3.92,0,0,1,2.28.81,2.36,2.36,0,0,1,1.13,1.95,38.49,38.49,0,0,1-.81,4.06c-.54,2.38-1.21,5.17-2,8.36s-1.51,6.2-2.11,9-1,4.76-1.21,5.84q7.14-2.1,13.71-3.4A71.35,71.35,0,0,1,1004,43h2.43c1.19,0,2.36,0,3.49.16s1.71.32,1.71.65a17.39,17.39,0,0,1-3.49,1c-1.25.22-2.47.38-3.66.49a63.87,63.87,0,0,0-14.69,2.92q-6.9,2.28-14,5-1.12,9.26-1.94,18.76T973,90.76c0,1.19,0,2.79.16,4.79a53.31,53.31,0,0,0,.65,6,16,16,0,0,0,1.62,5.11,3.54,3.54,0,0,0,3.25,2.11q2.76,0,5.68-3.16a53.81,53.81,0,0,0,5.85-7.8q2.91-4.62,5.35-9.33t4.31-8c1.24-2.16,2.08-3.3,2.51-3.41v.49a21.4,21.4,0,0,1-1.62,6.82,73.73,73.73,0,0,1-4.3,9.33,99,99,0,0,1-5.85,9.5,45.72,45.72,0,0,1-6.33,7.47Q981.1,113.66,978.33,113.65Z"/><path class="cls-1" d="M1015.35,171.78q-3.4,0-5.76-3.57a30.79,30.79,0,0,1-3.82-9.42,113.28,113.28,0,0,1-2.35-12.58c-.6-4.5-1-8.93-1.22-13.32s-.35-8.28-.41-11.69-.08-5.87-.08-7.38A6.93,6.93,0,0,1,999,108.3a3.79,3.79,0,0,1,.81-2.36,2.71,2.71,0,0,1,2.28-1q.32-6.35,1.13-12.67t1.63-12.5q.32-2.59,1.7-9.34t3.57-15.75q2.2-9,5-18.51t5.76-17.69a78,78,0,0,1,6.09-13.32Q1030,0,1032.72,0a5.11,5.11,0,0,1,4.71,2.92,21.25,21.25,0,0,1,2.28,6.58,35.5,35.5,0,0,1,.64,5.92,37.49,37.49,0,0,1-.24,4.23c-.16,1.4-.35,2.81-.57,4.22-.65,3.24-1.43,6.47-2.35,9.66s-2,6.36-3.17,9.5q-.64,1.78-2.43,5.84t-4.39,9q-2.6,4.95-5.44,9.58a46.24,46.24,0,0,1-5.68,7.63c-1.89,2-3.6,3-5.11,3q-1.14,7.31-2.52,14.37a76.35,76.35,0,0,0-1.38,14.69,27.88,27.88,0,0,1,3,2.43,25.12,25.12,0,0,1,2.52,2.76,17,17,0,0,0,8-2.84,41.87,41.87,0,0,0,7.3-6q3.42-3.49,6.25-6.9t4.71-5.77c1.25-1.57,2.09-2.35,2.52-2.35a.54.54,0,0,1,.49.4,2.2,2.2,0,0,1,.16.73c0,1.74-1.06,4-3.17,6.74a71.17,71.17,0,0,1-7.71,8.44,103.32,103.32,0,0,1-8.85,7.55,28.61,28.61,0,0,1-6.57,4.06,43.81,43.81,0,0,1,7.22,15.43,71.49,71.49,0,0,1,2,17c0,1.62-.08,3.67-.24,6.17a50,50,0,0,1-1.14,7.63,17.1,17.1,0,0,1-2.84,6.49A6.35,6.35,0,0,1,1015.35,171.78Zm.33-4.22c1.4,0,2.43-.81,3.08-2.44a18.65,18.65,0,0,0,1.22-5.52q.24-3.09.24-5.19a119.93,119.93,0,0,0-.73-13.16,58.17,58.17,0,0,0-2.92-12.9,31.23,31.23,0,0,0-6.74-11.12l-2.92-.65c0,1,0,2.89.08,5.76s.19,6.22.41,10.07.54,7.79,1,11.85,1,7.85,1.62,11.36a43.66,43.66,0,0,0,2.36,8.61Q1013.73,167.56,1015.68,167.56Zm-3.58-96.28c1.73-.54,3.58-2.17,5.52-4.87a66.34,66.34,0,0,0,5.69-9.75q2.76-5.67,5-11.77t3.82-11.2c1-3.41,1.7-6,2-7.71q.66-3.26,1.14-6.66a46.25,46.25,0,0,0,.49-6.66c0-.65-.08-1.7-.24-3.16s-.84-2.19-2-2.19a3.24,3.24,0,0,0-1.22.32,3.83,3.83,0,0,0-1.06.65,102,102,0,0,0-6.57,13.88q-3.16,8-5.77,16.89t-4.38,17.29A140.74,140.74,0,0,0,1012.1,71.28Z"/><path class="cls-1" d="M1052.7,119a6.58,6.58,0,0,1-5.12-2.27,16.22,16.22,0,0,1-3.17-5.6,33.35,33.35,0,0,1-1.54-6.74,49.56,49.56,0,0,1-.4-5.68c0-1.63.18-4.25.56-7.88s1-7.66,1.87-12.09a122.42,122.42,0,0,1,3.25-12.91,43.75,43.75,0,0,1,4.63-10.47c1.78-2.82,3.87-4.33,6.25-4.55a6.79,6.79,0,0,1,1.46-2.52,3.37,3.37,0,0,1,2.6-1,7.38,7.38,0,0,1,5.68,2.76,23.23,23.23,0,0,1,4.06,6.82,54.69,54.69,0,0,1,2.52,8,30,30,0,0,1,.89,6.33,75.51,75.51,0,0,1-1.46,14.78l1.3.16a15.09,15.09,0,0,0,7.3-1.46,20.61,20.61,0,0,0,4.06-2.84,4,4,0,0,1,2.44-1.38c.65,0,1,.38,1,1.14a4.4,4.4,0,0,1-2,3.49,22.53,22.53,0,0,1-5,2.76,26.82,26.82,0,0,1-5.68,1.7,11.37,11.37,0,0,1-4.23.16,76.23,76.23,0,0,1-7.22,18.11,31.6,31.6,0,0,1-6.25,8A11.34,11.34,0,0,1,1052.7,119Zm.48-4.22c1.63,0,3.3-1.11,5-3.33a46.57,46.57,0,0,0,5-8.12q2.36-4.78,4-9.17a60.93,60.93,0,0,0,2.11-6.5,25.27,25.27,0,0,1-9.18-11.36,37.39,37.39,0,0,1-3-14.61,36.91,36.91,0,0,1,.49-6.17,60,60,0,0,0-5.69,13.8,110.68,110.68,0,0,0-3.33,16.23,121,121,0,0,0-1,15.1,45.22,45.22,0,0,0,.41,5,20.43,20.43,0,0,0,1.7,6.25Q1050.92,114.79,1053.18,114.79Zm17.21-32.15a68.06,68.06,0,0,0,1-11.53,29.47,29.47,0,0,0-.57-4.46,64.54,64.54,0,0,0-1.62-6.74,30.43,30.43,0,0,0-2.52-6.17c-1-1.73-2-2.6-3.09-2.6-.54,0-1,.41-1.21,1.22a9.74,9.74,0,0,0-.49,2.68c-.06,1-.08,1.62-.08,2a48.82,48.82,0,0,0,2,13.56A30.14,30.14,0,0,0,1070.39,82.64Z"/><path class="cls-1" d="M1102.38,118.52a8.24,8.24,0,0,1-7-3.49,22.19,22.19,0,0,1-3.74-8.6,66.56,66.56,0,0,1-1.46-10.15c-.22-3.35-.32-6-.32-8a151.61,151.61,0,0,1,3.73-33.13q1.79-7.79,3.49-13.64t3.65-10.87q1.95-5,4.47-10.39c1.67-3.58,3.6-7.64,5.76-12.18h-.49a1.75,1.75,0,0,1-1.54-.9,3.16,3.16,0,0,1-.57-1.7c0-1.3.82-2.38,2.44-3.25a9.21,9.21,0,0,1,4.06-1.3,5.71,5.71,0,0,1,5.19,3,19.64,19.64,0,0,1,2.44,6.82,39.66,39.66,0,0,1,.65,6.41,46.35,46.35,0,0,1-.49,6.66,112.41,112.41,0,0,1-4,17.37,106.84,106.84,0,0,1-7.14,17.62,55.19,55.19,0,0,1-10.47,14.37c-.76.65-1.71,1.43-2.84,2.35a5.52,5.52,0,0,1-3.49,1.38q-.49,5.52-.49,11.37c0,1.4.08,3.49.24,6.25a61.44,61.44,0,0,0,1.14,8.6,24,24,0,0,0,2.76,7.63,5.59,5.59,0,0,0,4.95,3.17c2.27,0,4.47-1.22,6.58-3.65a44.9,44.9,0,0,0,5.92-9.1q2.76-5.43,5-10.88t3.81-9.09q1.54-3.65,2.19-3.81a3.17,3.17,0,0,1,.49,1.94,27,27,0,0,1-1.46,7.47,83.05,83.05,0,0,1-4,10.15,81.24,81.24,0,0,1-5.76,10.39,39.39,39.39,0,0,1-6.74,8A10.72,10.72,0,0,1,1102.38,118.52Zm-7.31-44.81q3.73-1,7.23-6.17a66,66,0,0,0,6.41-12.66,157.76,157.76,0,0,0,5.11-15.35q2.21-7.86,3.41-14.45a59.68,59.68,0,0,0,1.22-9.82,34.83,34.83,0,0,0-.32-4.14A3.43,3.43,0,0,0,1115.69,8a1.5,1.5,0,0,1-.73,1,4,4,0,0,0-.89.65q-2,2.12-4.39,8.12a147.56,147.56,0,0,0-4.79,14.12q-2.36,8.13-4.46,16.4t-3.57,15.18A101.14,101.14,0,0,0,1095.07,73.71Z"/><path class="cls-1" d="M1132.74,114.79a5.9,5.9,0,0,1-5.52-3.17,19.38,19.38,0,0,1-2.28-7.3,61.07,61.07,0,0,1-.48-6.74c0-1.08.13-3.09.4-6s.65-6.19,1.14-9.82,1.08-7.17,1.78-10.64a45.57,45.57,0,0,1,2.52-8.6c1-2.27,2-3.41,3.09-3.41a3.45,3.45,0,0,1,2.27.81,2.62,2.62,0,0,1,1,2.11,27.2,27.2,0,0,1-1.13,6.17q-1.14,4.23-2.68,9.58t-2.76,10.8a45.53,45.53,0,0,0-1.22,9.82q0,1.14.24,3.9a21.72,21.72,0,0,0,1.06,5.11c.54,1.57,1.4,2.36,2.6,2.36q2.43,0,5.36-3.57a65.14,65.14,0,0,0,5.92-8.85q3-5.28,5.6-10.56t4.39-8.85q1.79-3.57,2.43-3.57a1,1,0,0,1,1.06.57,3.12,3.12,0,0,1,.24,1.22,21.92,21.92,0,0,1-1.78,6.74A93,93,0,0,1,1151.25,93a109,109,0,0,1-6.34,10.39,58,58,0,0,1-6.65,8.2Q1135,114.79,1132.74,114.79ZM1136,52.61a4.13,4.13,0,0,1-2.11-.57,1.85,1.85,0,0,1-1-1.71,11.66,11.66,0,0,1,1.14-4,35.32,35.32,0,0,1,2.92-5.43,26.41,26.41,0,0,1,3.81-4.71c1.36-1.3,2.57-2,3.66-2,.86,0,1.3.54,1.3,1.62a3.45,3.45,0,0,1-2.12,3.09,6.2,6.2,0,0,0-2.19,3.08,35.25,35.25,0,0,0-1.46,4.71q-.57,2.43-1,3.9C1138.58,52,1137.61,52.61,1136,52.61Z"/><path class="cls-1" d="M1164.24,119a6.59,6.59,0,0,1-5.12-2.27,16,16,0,0,1-3.16-5.6,32.71,32.71,0,0,1-1.55-6.74,49.56,49.56,0,0,1-.4-5.68c0-1.63.19-4.25.57-7.88s1-7.66,1.86-12.09a122.42,122.42,0,0,1,3.25-12.91,43.75,43.75,0,0,1,4.63-10.47c1.79-2.82,3.87-4.33,6.25-4.55A6.79,6.79,0,0,1,1172,48.3a3.38,3.38,0,0,1,2.6-1,7.38,7.38,0,0,1,5.68,2.76,23.23,23.23,0,0,1,4.06,6.82,54.69,54.69,0,0,1,2.52,8,30,30,0,0,1,.89,6.33,75.51,75.51,0,0,1-1.46,14.78l1.3.16a15.07,15.07,0,0,0,7.3-1.46,20.61,20.61,0,0,0,4.06-2.84,4.07,4.07,0,0,1,2.44-1.38c.65,0,1,.38,1,1.14a4.4,4.4,0,0,1-2,3.49,22.53,22.53,0,0,1-4.95,2.76,26.82,26.82,0,0,1-5.68,1.7,11.32,11.32,0,0,1-4.22.16,74.34,74.34,0,0,1-2.68,8.37,72,72,0,0,1-4.55,9.74,31.38,31.38,0,0,1-6.25,8A11.34,11.34,0,0,1,1164.24,119Zm.48-4.22c1.63,0,3.3-1.11,5-3.33a46.57,46.57,0,0,0,5-8.12q2.36-4.78,4-9.17a60.93,60.93,0,0,0,2.11-6.5,25.34,25.34,0,0,1-9.18-11.36,37.39,37.39,0,0,1-3-14.61,36.91,36.91,0,0,1,.49-6.17,60,60,0,0,0-5.68,13.8,108.13,108.13,0,0,0-3.33,16.23,119.22,119.22,0,0,0-1.06,15.1,47.82,47.82,0,0,0,.41,5,20.72,20.72,0,0,0,1.7,6.25Q1162.46,114.79,1164.72,114.79Zm17.21-32.15a68.06,68.06,0,0,0,1-11.53,29.47,29.47,0,0,0-.57-4.46,64.54,64.54,0,0,0-1.62-6.74,30.43,30.43,0,0,0-2.52-6.17c-1-1.73-2-2.6-3.08-2.6-.55,0-.95.41-1.22,1.22a10.13,10.13,0,0,0-.49,2.68c-.05,1-.08,1.62-.08,2a48.82,48.82,0,0,0,2,13.56A30.14,30.14,0,0,0,1181.93,82.64Z"/></g></g></svg>