<svg xmlns="http://www.w3.org/2000/svg" viewBox="0 0 326.66 53.21"><title>logo about xuan vinh</title><g id="Layer_2" data-name="Layer 2"><g id="Layer_1-2" data-name="Layer 1"><path d="M10,53.21a10.33,10.33,0,0,1-5.81-1.48A8.34,8.34,0,0,1,1,47.65a16.35,16.35,0,0,1-1-5.93,31.5,31.5,0,0,1,.88-6.95,43.54,43.54,0,0,1,2.6-7.83,37.72,37.72,0,0,1,4.17-7.29,21.87,21.87,0,0,1,5.59-5.38,12.38,12.38,0,0,1,6.9-2.06,5.31,5.31,0,0,1,3.41,1,5.51,5.51,0,0,1,1.79,2.63,11.12,11.12,0,0,1,.54,3.51,20.12,20.12,0,0,1-.54,4.26,26.78,26.78,0,0,1-1.51,4.72,11,11,0,0,1-2.36,3.6,1.57,1.57,0,0,0-.27.18.56.56,0,0,1-.34.12q-.3,0-.3-.36A1.28,1.28,0,0,1,21,31a14,14,0,0,0,2.54-4.72,17.66,17.66,0,0,0,.79-5.32,15.35,15.35,0,0,0-.3-2.84,6.67,6.67,0,0,0-1.15-2.72,3,3,0,0,0-2.54-1.15,11.2,11.2,0,0,0-6.44,2,20.43,20.43,0,0,0-5.23,5.26,35.14,35.14,0,0,0-3.84,7.07A46.54,46.54,0,0,0,2.45,36a31,31,0,0,0-.82,6.53,15.09,15.09,0,0,0,.67,4.6,6.82,6.82,0,0,0,2.3,3.41A6.85,6.85,0,0,0,9,51.88a16.48,16.48,0,0,0,6.86-1.48,26.41,26.41,0,0,0,6.23-4,45.2,45.2,0,0,0,5.48-5.5A71.4,71.4,0,0,0,32.2,34.8c1.39-2.08,2.61-4,3.66-5.9-.93.17-1.86.35-2.78.55a21.81,21.81,0,0,0-2.78.79,1.31,1.31,0,0,0-.49.24.88.88,0,0,1-.54.18c-.41,0-.65-.11-.73-.33a2.9,2.9,0,0,1-.12-.94,1.92,1.92,0,0,1,1.06-1.76A7.59,7.59,0,0,1,32,26.79a24.74,24.74,0,0,1,3-.3c1,0,1.75-.08,2.27-.12l4.48-7.87q2.24-3.93,4.23-8c.52-1,1-2.11,1.42-3.2s.88-2.16,1.36-3.21a3,3,0,0,1,.36-.63,1,1,0,0,1,.67-.4c.16.09.24.19.24.31a7.78,7.78,0,0,1-.7,2.39c-.46,1.14-1.05,2.5-1.78,4.05S46,13,45.11,14.69s-1.74,3.33-2.57,4.9-1.56,3-2.21,4.14-1.1,2.05-1.39,2.57l5-.24c1.67-.08,3.34-.14,5-.18.32-3.42.77-7,1.33-10.67A69.55,69.55,0,0,0,51.1,4.6,8,8,0,0,0,51,3.05a7.51,7.51,0,0,1-.15-1.48A1.27,1.27,0,0,1,51.46.36,2.77,2.77,0,0,1,52.79,0C54,0,54.61.54,54.61,1.63a16.55,16.55,0,0,1-.49,3.87q-.48,2-.78,3.93c-.45,2.7-.9,5.43-1.36,8.17s-.88,5.48-1.24,8.22c.88-.08,1.77-.15,2.66-.21s1.75-.09,2.6-.09a2.78,2.78,0,0,1,.54.06.33.33,0,0,1,.3.36c0,.24-.27.45-.81.61a9.82,9.82,0,0,1-2,.33L51.92,27c-.67,0-1.12.06-1.37.06q-.3,2.79-.57,5.62c-.18,1.9-.27,3.79-.27,5.69,0,.77,0,1.69.15,2.78a7.23,7.23,0,0,0,.85,2.9A2.43,2.43,0,0,0,53,45.35a2.91,2.91,0,0,0,2.12-.9,13.06,13.06,0,0,0,1.51-1.79c.4-.58.69-.87.85-.87s.24.1.24.3a3.19,3.19,0,0,1-.94,1.84,13.53,13.53,0,0,1-2.11,2,3.62,3.62,0,0,1-2,.91A3.46,3.46,0,0,1,50.19,46a5.46,5.46,0,0,1-1.33-2.3,13.73,13.73,0,0,1-.54-2.87c-.08-1-.12-1.87-.12-2.63,0-1.82.06-3.64.18-5.48s.26-3.65.42-5.47c-1.85.16-3.72.37-5.59.64l-5.66.81L35.8,31.93a54.16,54.16,0,0,1-3.39,5.29,59.14,59.14,0,0,1-4.65,5.68A47.32,47.32,0,0,1,22.19,48a29.7,29.7,0,0,1-6,3.75A14.51,14.51,0,0,1,10,53.21Z"/><path d="M62,46.2c-.48,0-.85-.44-1.12-1.33a19.29,19.29,0,0,1-.6-3.17c-.14-1.24-.22-2.39-.24-3.48s0-1.84,0-2.24a64.52,64.52,0,0,1,.75-9.46A73.31,73.31,0,0,1,63,16.57a52.42,52.42,0,0,1,3.45-8.83c.28-.52.69-1.25,1.24-2.18a15.17,15.17,0,0,1,1.84-2.51,2.87,2.87,0,0,1,2-1.12,1.42,1.42,0,0,1,1.24.58,2.36,2.36,0,0,1,.39,1.36c0,.73-.32,1.09-1,1.09a2.57,2.57,0,0,1-.9-.18,3.59,3.59,0,0,0-1.12,1A20.3,20.3,0,0,0,69,7.5c-.37.56-.65,1-.85,1.39a59.15,59.15,0,0,0-4.72,12.76,56.61,56.61,0,0,0-1.69,13.54v1.49c0,.5,0,1,.06,1.54a24.74,24.74,0,0,1,1-3.12c.5-1.35,1.12-2.8,1.84-4.35A48.34,48.34,0,0,1,67,26.3a19.05,19.05,0,0,1,2.66-3.47,3.86,3.86,0,0,1,2.63-1.36,1.66,1.66,0,0,1,1.49.69,3.94,3.94,0,0,1,.57,1.67,13.91,13.91,0,0,1,.12,1.69,21,21,0,0,1-.36,3.32,40.8,40.8,0,0,1-1.06,4.51,29.47,29.47,0,0,1-1.72,4.53A13.55,13.55,0,0,1,69,41.42a4,4,0,0,1-2.91,1.39,2.4,2.4,0,0,1-1.6-.54,3.88,3.88,0,0,1-1-1.39c-.16.76-.27,1.42-.33,2a19.1,19.1,0,0,0-.09,2,1.91,1.91,0,0,1-.24.88A.82.82,0,0,1,62,46.2Zm3.51-4.9A3.17,3.17,0,0,0,67.94,40a13.18,13.18,0,0,0,2-3.29,32.13,32.13,0,0,0,1.48-4.21q.6-2.2.93-4.11a18.83,18.83,0,0,0,.34-2.93v-.24a4.22,4.22,0,0,0-.12-1,.66.66,0,0,0-.73-.48c-.52,0-1.11.4-1.75,1.2a22.6,22.6,0,0,0-2,3.06,39.54,39.54,0,0,0-1.87,3.81c-.57,1.31-1,2.52-1.39,3.63a8.72,8.72,0,0,0-.55,2.38c0,.29,0,.71,0,1.27a4.75,4.75,0,0,0,.3,1.55A1,1,0,0,0,65.55,41.3Z"/><path d="M82.3,45.29a2.43,2.43,0,0,1-1.9-.84,5.91,5.91,0,0,1-1.18-2.09,11.7,11.7,0,0,1-.58-2.51,18.65,18.65,0,0,1-.15-2.12c0-.6.07-1.58.21-2.93s.38-2.85.7-4.5a42.81,42.81,0,0,1,1.21-4.81,16.52,16.52,0,0,1,1.72-3.9,3.21,3.21,0,0,1,2.33-1.7A2.53,2.53,0,0,1,85.2,19a1.29,1.29,0,0,1,1-.4,2.78,2.78,0,0,1,2.12,1,8.86,8.86,0,0,1,1.51,2.54,21.58,21.58,0,0,1,.94,3,11.05,11.05,0,0,1,.33,2.35A27.53,27.53,0,0,1,90.52,33L91,33a5.52,5.52,0,0,0,2.72-.55,7.39,7.39,0,0,0,1.51-1.06,1.51,1.51,0,0,1,.91-.51q.36,0,.36.42a1.62,1.62,0,0,1-.75,1.3,8.06,8.06,0,0,1-1.85,1,9.46,9.46,0,0,1-2.12.64,4.31,4.31,0,0,1-1.57.06,28,28,0,0,1-2.69,6.74,11.44,11.44,0,0,1-2.33,3A4.2,4.2,0,0,1,82.3,45.29Zm.18-1.57a2.59,2.59,0,0,0,1.88-1.24,17.46,17.46,0,0,0,1.84-3A34.36,34.36,0,0,0,87.68,36a20.51,20.51,0,0,0,.79-2.42,9.51,9.51,0,0,1-3.42-4.23A14,14,0,0,1,83.93,24a13,13,0,0,1,.19-2.3A22,22,0,0,0,82,26.79a39.57,39.57,0,0,0-1.24,6.05,45.05,45.05,0,0,0-.39,5.62,17.62,17.62,0,0,0,.15,1.87,7.76,7.76,0,0,0,.63,2.33A1.49,1.49,0,0,0,82.48,43.72Zm6.41-12a25.64,25.64,0,0,0,.36-4.3A11.15,11.15,0,0,0,89,25.79a23.74,23.74,0,0,0-.6-2.51A11.22,11.22,0,0,0,87.5,21c-.36-.64-.75-1-1.15-1q-.3,0-.45.45a3.79,3.79,0,0,0-.18,1q0,.54,0,.72a18.35,18.35,0,0,0,.75,5A11.28,11.28,0,0,0,88.89,31.75Z"/><path d="M97.12,42.93a1.84,1.84,0,0,1-1.55-.78,5.68,5.68,0,0,1-.87-2,13.7,13.7,0,0,1-.4-2.3c-.06-.74-.09-1.34-.09-1.78s0-.81,0-1.21.05-.8.09-1.21c.17-1.25.39-2.49.67-3.72s.5-2.47.67-3.72c.08-.64.14-1.27.18-1.87s.08-1.23.12-1.87a2.62,2.62,0,0,1,.18-.58.47.47,0,0,1,.48-.27.74.74,0,0,1,.82.57,4.28,4.28,0,0,1,.15,1.06,22,22,0,0,1-.42,4.29c-.29,1.42-.57,2.83-.85,4.24a22,22,0,0,0-.42,4.29c0,.16,0,.52,0,1.06s.07,1.13.15,1.75a6.55,6.55,0,0,0,.39,1.61c.18.44.41.66.7.66s.83-.42,1.42-1.27a30,30,0,0,0,1.81-3c.63-1.19,1.19-2.3,1.7-3.33s.83-1.72,1-2.08A14.18,14.18,0,0,0,104.22,28q.27-1.58.39-2.94a11.24,11.24,0,0,1,.61-2.69,1,1,0,0,1,.91-.72c.6,0,.9.36.9,1.09a29.13,29.13,0,0,1-.42,4.5,32.85,32.85,0,0,0-.42,5.17V35a12.12,12.12,0,0,0,.15,1.85,5.61,5.61,0,0,0,.48,1.63,1.08,1.08,0,0,0,1,.67,2.18,2.18,0,0,0,1.57-.91,13,13,0,0,0,1.48-2.12c.47-.8.86-1.51,1.18-2.12s.57-.9.73-.9.36.16.36.48a4.7,4.7,0,0,1-.57,1.73,20.23,20.23,0,0,1-1.45,2.44A14.09,14.09,0,0,1,109.3,40a2.56,2.56,0,0,1-1.6.91,2.28,2.28,0,0,1-2.09-1.15,7.91,7.91,0,0,1-1-2.84,19.87,19.87,0,0,1-.28-3.3V31.08c-.16.49-.42,1.2-.78,2.15s-.79,2-1.27,3.08-1,2.17-1.58,3.18A11.65,11.65,0,0,1,99,42,2.65,2.65,0,0,1,97.12,42.93Z"/><path d="M119.13,43.3a2.6,2.6,0,0,1-2.12-.94A6.16,6.16,0,0,1,115.83,40a15.7,15.7,0,0,1-.51-2.84c-.08-.95-.12-1.72-.12-2.33,0-2.18.09-4.37.27-6.59s.37-4.41.57-6.59a14.88,14.88,0,0,0-2,1A7.29,7.29,0,0,0,112.35,24l-.27.24a.61.61,0,0,1-.39.12,1.14,1.14,0,0,1-.82-.42,1.29,1.29,0,0,1-.39-.85,1.55,1.55,0,0,1,.73-1.12A10,10,0,0,1,113,20.89c.7-.34,1.37-.63,2-.87s1.06-.41,1.31-.49c0-.32.13-.94.27-1.84s.31-1.94.51-3.09.43-2.25.7-3.32a20.15,20.15,0,0,1,.81-2.66c.28-.71.57-1.06.85-1.06a1.49,1.49,0,0,1,.85.3.87.87,0,0,1,.42.73,14.58,14.58,0,0,1-.3,1.51c-.21.89-.46,1.92-.76,3.11s-.56,2.31-.78,3.36-.38,1.77-.46,2.18q2.67-.8,5.11-1.27a26.07,26.07,0,0,1,5.17-.49h.91c.44,0,.88,0,1.3.06s.63.12.63.24a5.78,5.78,0,0,1-1.3.37c-.46.08-.91.14-1.36.18a23.37,23.37,0,0,0-5.47,1.09c-1.71.56-3.46,1.19-5.23,1.87q-.42,3.45-.73,7t-.3,7c0,.44,0,1,.06,1.78a21,21,0,0,0,.24,2.24A6.4,6.4,0,0,0,118,40.7a1.31,1.31,0,0,0,1.21.78,3,3,0,0,0,2.11-1.18,19,19,0,0,0,2.18-2.9c.73-1.15,1.39-2.31,2-3.48s1.14-2.15,1.6-3,.78-1.23.94-1.27v.18a7.79,7.79,0,0,1-.61,2.54,26.15,26.15,0,0,1-1.6,3.48,37.29,37.29,0,0,1-2.18,3.54,16.62,16.62,0,0,1-2.36,2.78A3.41,3.41,0,0,1,119.13,43.3Z"/><path d="M143.86,46.8a1.82,1.82,0,0,1-1.33-.63,4.56,4.56,0,0,1-.94-1.48,4.15,4.15,0,0,1-.33-1.45,14.76,14.76,0,0,1,1.12-5.36,38.45,38.45,0,0,1,2.84-5.77,63.27,63.27,0,0,1,3.63-5.47q1.91-2.58,3.54-4.39a33.79,33.79,0,0,0-3.9-6.71,44.17,44.17,0,0,0-5.24-5.68,1.27,1.27,0,0,1-.54-1A1.18,1.18,0,0,1,143,8a1,1,0,0,1,.79-.33,1.29,1.29,0,0,1,.33.06.69.69,0,0,1,.27.12,15.46,15.46,0,0,1,5.9,5.35,47.55,47.55,0,0,1,3.78,7.11c.44-.53,1.18-1.33,2.21-2.42s2.2-2.29,3.53-3.6,2.66-2.57,4-3.78a38.29,38.29,0,0,1,3.69-3,5.29,5.29,0,0,1,2.66-1.18.85.85,0,0,1,.79.39,1.66,1.66,0,0,1,.24.88A3.25,3.25,0,0,1,171,8.74a1.74,1.74,0,0,1-.69.88,50.71,50.71,0,0,0-8.23,5.59A90.64,90.64,0,0,0,154.8,22c.33.73.81,1.86,1.46,3.39s1.39,3.23,2.23,5.11,1.76,3.67,2.72,5.38a28.6,28.6,0,0,0,2.85,4.23,3.67,3.67,0,0,0,2.54,1.66,2,2,0,0,0,1.78-1.17,9.76,9.76,0,0,0,.94-2.91c.2-1.15.35-2.29.45-3.44s.21-2.13.33-2.94.31-1.23.55-1.27a.65.65,0,0,1,.33.43,1.9,1.9,0,0,1,.09.54c0,.61,0,1.45-.09,2.54s-.17,2.26-.33,3.51a21.31,21.31,0,0,1-.76,3.54,8.52,8.52,0,0,1-1.36,2.75,2.59,2.59,0,0,1-2.11,1.09,4.54,4.54,0,0,1-3.09-1.7,23.52,23.52,0,0,1-3.2-4.32c-1-1.75-2-3.59-3-5.5s-1.77-3.68-2.48-5.3-1.24-2.84-1.6-3.68a52.65,52.65,0,0,0-3.38,4.2,50.83,50.83,0,0,0-3.27,5.05A31.42,31.42,0,0,0,144,38.52a15.82,15.82,0,0,0-.94,5.2,1.93,1.93,0,0,0,.34,1.33,4.63,4.63,0,0,0,.63.58.78.78,0,0,1,.3.69Q144.28,46.8,143.86,46.8Z"/><path d="M175.61,42.93a1.84,1.84,0,0,1-1.55-.78,5.68,5.68,0,0,1-.87-2,13.7,13.7,0,0,1-.4-2.3c-.06-.74-.09-1.34-.09-1.78s0-.81,0-1.21.05-.8.09-1.21c.17-1.25.39-2.49.67-3.72s.5-2.47.67-3.72c.08-.64.14-1.27.18-1.87s.08-1.23.12-1.87a2.62,2.62,0,0,1,.18-.58.47.47,0,0,1,.48-.27.74.74,0,0,1,.82.57,4.28,4.28,0,0,1,.15,1.06,22,22,0,0,1-.42,4.29c-.29,1.42-.57,2.83-.85,4.24a22,22,0,0,0-.42,4.29c0,.16,0,.52,0,1.06s.07,1.13.15,1.75a6.55,6.55,0,0,0,.39,1.61c.18.44.41.66.7.66s.83-.42,1.42-1.27a30,30,0,0,0,1.81-3c.63-1.19,1.19-2.3,1.7-3.33s.83-1.72,1-2.08A14.18,14.18,0,0,0,182.71,28q.27-1.58.39-2.94a11.24,11.24,0,0,1,.61-2.69,1,1,0,0,1,.91-.72c.6,0,.9.36.9,1.09a29.13,29.13,0,0,1-.42,4.5,32.85,32.85,0,0,0-.42,5.17V35a12.12,12.12,0,0,0,.15,1.85,5.61,5.61,0,0,0,.48,1.63,1.08,1.08,0,0,0,1,.67,2.18,2.18,0,0,0,1.57-.91,13,13,0,0,0,1.48-2.12c.47-.8.86-1.51,1.18-2.12s.57-.9.73-.9.36.16.36.48a4.7,4.7,0,0,1-.57,1.73,20.23,20.23,0,0,1-1.45,2.44A14.09,14.09,0,0,1,187.79,40a2.56,2.56,0,0,1-1.6.91,2.28,2.28,0,0,1-2.09-1.15,7.91,7.91,0,0,1-1-2.84,19.87,19.87,0,0,1-.28-3.3V31.08c-.16.49-.42,1.2-.78,2.15s-.79,2-1.27,3.08-1,2.17-1.58,3.18A11.65,11.65,0,0,1,177.45,42,2.65,2.65,0,0,1,175.61,42.93Z"/><path d="M193.57,46a1.6,1.6,0,0,1-1.52-1,6.59,6.59,0,0,1-.6-2.27c-.08-.84-.12-1.49-.12-1.93a30.25,30.25,0,0,1,.42-4.87,39.63,39.63,0,0,1,1.09-4.81c.2-.68.56-1.68,1.09-3a38,38,0,0,1,1.9-4,18.16,18.16,0,0,1,2.42-3.48,3.66,3.66,0,0,1,2.63-1.42,3.81,3.81,0,0,1,2.24.91,2.52,2.52,0,0,1,1.21,2,1,1,0,0,1-.3.73.47.47,0,0,1,.3-.06c.77,0,1.15.4,1.15,1.21a17.22,17.22,0,0,1-.39,3.32c-.27,1.29-.54,2.65-.82,4.08a21.72,21.72,0,0,0-.42,4.15,14.65,14.65,0,0,0,.12,1.72,4.61,4.61,0,0,0,.57,1.78,1.57,1.57,0,0,0,1.48.79,3.11,3.11,0,0,0,2.06-1,15.56,15.56,0,0,0,2.12-2.54c.68-1,1.33-2,1.93-3l1.54-2.54c.43-.69.72-1,.88-1s.42.18.42.55a5.54,5.54,0,0,1-.63,2.08,26,26,0,0,1-1.67,3,31.56,31.56,0,0,1-2.26,3.08,16,16,0,0,1-2.48,2.42,3.86,3.86,0,0,1-2.21.93,2.65,2.65,0,0,1-2.39-1.3,8.18,8.18,0,0,1-1.09-3.11,23.12,23.12,0,0,1-.27-3.39v-1a5.21,5.21,0,0,1,.06-.85c-.24.57-.58,1.4-1,2.51s-.95,2.32-1.54,3.63-1.21,2.56-1.87,3.75a16.53,16.53,0,0,1-2,2.93A2.83,2.83,0,0,1,193.57,46Zm.48-2.54c.52,0,1.11-.49,1.75-1.45a28.87,28.87,0,0,0,2-3.72c.7-1.51,1.38-3.14,2-4.87s1.24-3.38,1.79-4.93,1-2.84,1.36-3.87a5.41,5.41,0,0,1,.73-1.66l-.37.06a.73.73,0,0,1-.66-.45,4.63,4.63,0,0,0-.61-.88,1.51,1.51,0,0,0-1.21-.42,2.8,2.8,0,0,0-2.11,1.27,18.28,18.28,0,0,0-2,3.05,30.83,30.83,0,0,0-1.57,3.48c-.42,1.12-.72,2-.88,2.54a30.88,30.88,0,0,0-1.21,8.58c0,.17,0,.52,0,1.06a5.48,5.48,0,0,0,.25,1.51C193.56,43.25,193.77,43.48,194.05,43.48ZM197,17.23a.48.48,0,0,1-.36-.84,12.28,12.28,0,0,1,1.3-1.39c.58-.57,1.21-1.14,1.87-1.73s1.28-1.07,1.85-1.48a2.67,2.67,0,0,1,1.21-.6c.2,0,.56.23,1.09.69s1.07,1,1.66,1.64,1.11,1.2,1.57,1.75a11.07,11.07,0,0,1,.88,1.12.28.28,0,0,1,.18.3.45.45,0,0,1-.24.39c-.16.1-.36.07-.61-.09l-2.87-2.18c-.95-.72-1.64-1.22-2.08-1.51a11,11,0,0,0-1.43.94c-.62.47-1.26,1-1.9,1.48l-1.63,1.33A.85.85,0,0,1,197,17.23Z"/><path d="M213.82,44.57a.69.69,0,0,1-.63-.34,1.37,1.37,0,0,1-.21-.75,59.75,59.75,0,0,1,.39-6.8,60.06,60.06,0,0,0,.39-6.81c0-.24,0-.71,0-1.42s-.06-1.47-.12-2.3-.14-1.57-.24-2.23a2.53,2.53,0,0,0-.39-1.24,2.67,2.67,0,0,1-.46-.43.88.88,0,0,1-.21-.6.67.67,0,0,1,.33-.58,1.3,1.3,0,0,1,.7-.21,1.55,1.55,0,0,1,1.48.94,7.36,7.36,0,0,1,.61,2.27,22.69,22.69,0,0,1,.15,2.54q0,5.69-.37,11.43c.16-.45.49-1.23,1-2.36s1.07-2.4,1.76-3.81,1.4-2.77,2.14-4.08a32.69,32.69,0,0,1,2.09-3.27c.64-.87,1.17-1.3,1.57-1.3.56,0,1,.35,1.24,1.06a5.23,5.23,0,0,1,.39,1.72c0,1.86-.09,3.71-.27,5.57s-.27,3.72-.27,5.62c0,.24,0,.69.09,1.36a9.11,9.11,0,0,0,.36,1.87c.18.59.48.88.88.88s.74-.36,1.27-1.09a27.77,27.77,0,0,0,1.63-2.57c.57-1,1.07-1.92,1.51-2.81s.75-1.51.91-1.87a2.61,2.61,0,0,0,.12-.28q.06-.15.18-.15c.2,0,.32.15.37.46s.06.49.06.57a6.63,6.63,0,0,1-.67,2.12,30.9,30.9,0,0,1-1.66,3.2,19.47,19.47,0,0,1-2.06,2.91,2.83,2.83,0,0,1-1.9,1.2,2,2,0,0,1-1.79-1,6,6,0,0,1-.75-2.21,15,15,0,0,1-.18-2.09,38.09,38.09,0,0,1,.21-4,38.09,38.09,0,0,0,.21-4c0-.12,0-.42,0-.91s-.05-.94-.09-1.39-.14-.66-.3-.66c-.41,0-.92.5-1.55,1.51a36,36,0,0,0-2,3.81c-.71,1.53-1.4,3.11-2.09,4.75s-1.28,3.09-1.78,4.38-.86,2.16-1.06,2.6a2.63,2.63,0,0,1-.33.49A.74.74,0,0,1,213.82,44.57Z"/><path d="M265.22,49a.93.93,0,0,1-1-.72A4.55,4.55,0,0,1,264,47a9.68,9.68,0,0,1,.31-2.12c.2-.89.46-1.83.78-2.84s.64-2,.94-2.84.55-1.6.76-2.12c0-1.61,0-3.21-.06-4.78s-.07-3.16-.07-4.78c0-1-.07-2.23-.21-3.8s-.37-3.28-.69-5.12a56.14,56.14,0,0,0-1.27-5.47,28.79,28.79,0,0,0-1.94-5,12.06,12.06,0,0,0-2.72-3.66,5.28,5.28,0,0,0-3.57-1.39,8,8,0,0,0-4.38,1.3,13.65,13.65,0,0,0-3.6,3.45,24.77,24.77,0,0,0-2.69,4.69,27.24,27.24,0,0,0-1.69,5.05,20,20,0,0,0-.58,4.5,10.26,10.26,0,0,0,.4,2.78,5.56,5.56,0,0,0,1.33,2.45,3.33,3.33,0,0,0,2.57,1,5.2,5.2,0,0,0,2.69-.73,12.9,12.9,0,0,0,2.26-1.66c.69-.62,1.27-1.18,1.76-1.66s.82-.73,1-.73a.49.49,0,0,1,.06.31,2.88,2.88,0,0,1-.91,1.78,13.28,13.28,0,0,1-2.24,1.93,15.76,15.76,0,0,1-2.6,1.52,5.32,5.32,0,0,1-2.05.57,5.24,5.24,0,0,1-3.51-1.12,6.6,6.6,0,0,1-2-2.87,10.84,10.84,0,0,1-.63-3.69,20.59,20.59,0,0,1,.69-5,29.4,29.4,0,0,1,2-5.47,26.58,26.58,0,0,1,3.14-5,15.63,15.63,0,0,1,4.12-3.66,9.37,9.37,0,0,1,5-1.39,7.44,7.44,0,0,1,5,1.72,13,13,0,0,1,3.39,4.6,30.72,30.72,0,0,1,2.09,6.35,64.26,64.26,0,0,1,1.11,7q.38,3.54.46,6.6t.09,5q1-2.24,2.48-5.23t3.45-6.32q1.93-3.32,4.23-6.5a52.51,52.51,0,0,1,4.81-5.77,24.58,24.58,0,0,1,5.11-4.14,10.07,10.07,0,0,1,5.2-1.54,1.87,1.87,0,0,1,1.6.69,2.83,2.83,0,0,1,.51,1.72,6.78,6.78,0,0,1-.15,1.09,6.78,6.78,0,0,1-.42,1.42c-.18.43-.42.64-.7.64a.39.39,0,0,1-.36-.21.93.93,0,0,1-.12-.46,1.78,1.78,0,0,1,.24-.9,1.85,1.85,0,0,0,.24-.91.5.5,0,0,0-.27-.49,1.39,1.39,0,0,0-.57-.12,9.87,9.87,0,0,0-5.33,1.7,26,26,0,0,0-5,4.26,51.42,51.42,0,0,0-4.33,5.29q-1.94,2.73-3.2,4.84c-.57.89-1.23,2.05-2,3.48s-1.53,2.94-2.3,4.53-1.44,3.14-2,4.63a18.09,18.09,0,0,0-1.12,3.81,26.08,26.08,0,0,0-.27,3.32,24.39,24.39,0,0,1-.28,3.33,7.86,7.86,0,0,1-.39,1.6,6.79,6.79,0,0,1-.88,1.79A1.68,1.68,0,0,1,265.22,49Z"/><path d="M282.76,43.72a2.21,2.21,0,0,1-2.06-1.18,7.18,7.18,0,0,1-.84-2.72,22.53,22.53,0,0,1-.18-2.51c0-.4.05-1.15.15-2.24s.24-2.3.42-3.66.4-2.67.66-4a17.53,17.53,0,0,1,.94-3.2c.36-.85.75-1.27,1.15-1.27a1.3,1.3,0,0,1,.85.3,1,1,0,0,1,.36.79,10.16,10.16,0,0,1-.42,2.3c-.29,1-.62,2.23-1,3.56s-.73,2.67-1,4a16.94,16.94,0,0,0-.45,3.65c0,.29,0,.77.09,1.45a8.08,8.08,0,0,0,.39,1.91c.2.58.52.88,1,.88a2.91,2.91,0,0,0,2-1.33,23.27,23.27,0,0,0,2.21-3.3c.75-1.31,1.44-2.62,2.09-3.93s1.19-2.41,1.63-3.3.75-1.33.91-1.33a.37.37,0,0,1,.39.22,1.13,1.13,0,0,1,.09.45,8.15,8.15,0,0,1-.66,2.51,33.88,33.88,0,0,1-1.76,3.75,39.51,39.51,0,0,1-2.36,3.87,20.72,20.72,0,0,1-2.48,3A3.27,3.27,0,0,1,282.76,43.72ZM284,20.56a1.56,1.56,0,0,1-.79-.21.69.69,0,0,1-.36-.64,4.39,4.39,0,0,1,.42-1.48,13.39,13.39,0,0,1,1.09-2,9.91,9.91,0,0,1,1.42-1.76,2.14,2.14,0,0,1,1.36-.72c.33,0,.49.2.49.6a1.29,1.29,0,0,1-.79,1.15,2.37,2.37,0,0,0-.82,1.15,12.69,12.69,0,0,0-.54,1.75c-.14.61-.27,1.09-.39,1.45A1,1,0,0,1,284,20.56Z"/><path d="M291.83,44.57a.71.71,0,0,1-.64-.34,1.37,1.37,0,0,1-.21-.75,57.56,57.56,0,0,1,.4-6.8,60.06,60.06,0,0,0,.39-6.81c0-.24,0-.71,0-1.42s-.06-1.47-.12-2.3-.14-1.57-.24-2.23a2.5,2.5,0,0,0-.4-1.24,3,3,0,0,1-.45-.43.88.88,0,0,1-.21-.6.67.67,0,0,1,.33-.58,1.27,1.27,0,0,1,.7-.21,1.55,1.55,0,0,1,1.48.94,7.09,7.09,0,0,1,.6,2.27,22.69,22.69,0,0,1,.15,2.54q0,5.69-.36,11.43c.16-.45.48-1.23,1-2.36s1.07-2.4,1.75-3.81,1.4-2.77,2.15-4.08a32.79,32.79,0,0,1,2.08-3.27c.65-.87,1.17-1.3,1.58-1.3s1,.35,1.24,1.06a5.23,5.23,0,0,1,.39,1.72c0,1.86-.09,3.71-.27,5.57s-.27,3.72-.27,5.62c0,.24,0,.69.09,1.36a9.11,9.11,0,0,0,.36,1.87c.18.59.47.88.88.88s.74-.36,1.27-1.09a30.05,30.05,0,0,0,1.63-2.57c.56-1,1.07-1.92,1.51-2.81s.75-1.51.91-1.87a2.61,2.61,0,0,0,.12-.28q.06-.15.18-.15c.2,0,.32.15.36.46s.06.49.06.57a6.53,6.53,0,0,1-.66,2.12,31.1,31.1,0,0,1-1.67,3.2,19.46,19.46,0,0,1-2.05,2.91,2.84,2.84,0,0,1-1.91,1.2,1.93,1.93,0,0,1-1.78-1,6.22,6.22,0,0,1-.76-2.21,15,15,0,0,1-.18-2.09,38.09,38.09,0,0,1,.21-4,35.57,35.57,0,0,0,.22-4c0-.12,0-.42,0-.91s-.06-.94-.09-1.39-.15-.66-.31-.66c-.4,0-.91.5-1.54,1.51a36,36,0,0,0-2,3.81q-1.07,2.3-2.09,4.75c-.69,1.63-1.28,3.09-1.79,4.38s-.85,2.16-1.05,2.6a2.72,2.72,0,0,1-.34.49A.72.72,0,0,1,291.83,44.57Z"/><path d="M309.91,43.9c-.48,0-.85-.35-1.09-1.06a12.61,12.61,0,0,1-.54-2.54c-.12-1-.19-1.91-.21-2.78s0-1.44,0-1.72q0-3.69.33-7.89c.22-2.8.58-5.65,1.09-8.53a62.6,62.6,0,0,1,2-8.28,36.11,36.11,0,0,1,3.15-7.17,1.37,1.37,0,0,1,1.27-.72,1.13,1.13,0,0,1,.66.21.72.72,0,0,1,.3.63,2,2,0,0,1-.24.85q-1.75,4-3.32,7.89A49.86,49.86,0,0,0,310.76,21a54.82,54.82,0,0,0-1.27,11.8,45.6,45.6,0,0,0,.36,5.74,27.81,27.81,0,0,1,1.21-3q.9-2,2.15-4.42t2.66-4.65a24.48,24.48,0,0,1,2.75-3.66A3.56,3.56,0,0,1,321,21.41a1.37,1.37,0,0,1,1.42,1.05,6.55,6.55,0,0,1,.33,1.91,32.85,32.85,0,0,1-.36,4.84,33.16,33.16,0,0,0-.37,4.9c0,.16,0,.59.06,1.3a12.94,12.94,0,0,0,.28,2c.14.65.33,1,.57,1a1.46,1.46,0,0,0,1.09-.7,9.6,9.6,0,0,0,1-1.57l.81-1.57c.25-.46.43-.7.55-.7s.2.1.24.28a2.05,2.05,0,0,1,.06.39,6.06,6.06,0,0,1-.57,2.15,10.28,10.28,0,0,1-1.49,2.47,2.43,2.43,0,0,1-1.81,1.12,1.6,1.6,0,0,1-1.36-.72,5,5,0,0,1-.76-1.76,14.74,14.74,0,0,1-.33-2c-.06-.65-.09-1.15-.09-1.51,0-1.45.07-2.91.21-4.36s.21-2.9.21-4.35V25.1a3.88,3.88,0,0,0-.06-.7q-.06-.33-.3-.33c-.24,0-.58.27-1,.81l-.9,1.12a30.92,30.92,0,0,0-3.12,4.9,48.82,48.82,0,0,0-2.57,5.84,35.68,35.68,0,0,0-1.57,5.59,3.31,3.31,0,0,1-.33,1A.92.92,0,0,1,309.91,43.9Z"/></g></g></svg>