<svg xmlns="http://www.w3.org/2000/svg" viewBox="0 0 287.84 66.64"><title>bảng giá dịch vụ</title><g id="Layer_2" data-name="Layer 2"><g id="Layer_1-2" data-name="Layer 1"><path d="M15.18,41.79a.63.63,0,0,0-.36-.61,2.88,2.88,0,0,0-.67-.24,3.07,3.07,0,0,1-1.81-1.39,5.45,5.45,0,0,1-.67-2.21c-.08-.83-.12-1.62-.12-2.39A40.25,40.25,0,0,1,13.39,23,53.07,53.07,0,0,1,18.2,12a19.55,19.55,0,0,1,1.45-2.14A14.87,14.87,0,0,0,21,7.74l.19-.42a.86.86,0,0,0-.55-.7,2.15,2.15,0,0,0-.85-.21,1.56,1.56,0,0,0-1.14.48A23,23,0,0,0,15,12.79a52.21,52.21,0,0,0-2.78,7.74,64.22,64.22,0,0,0-1.73,8.1,49.75,49.75,0,0,0-.57,7,12.51,12.51,0,0,0,.39,3.14,4.86,4.86,0,0,0,1.48,2.48,4.38,4.38,0,0,0,3,1Q15.18,42.21,15.18,41.79Z"/><path d="M36.74,18.38a22.72,22.72,0,0,0,3.53-5.29,12.75,12.75,0,0,0,1.4-5.59A6.68,6.68,0,0,0,40.27,3,7.51,7.51,0,0,0,36.65.7,15.68,15.68,0,0,0,31.93,0,48.21,48.21,0,0,0,20,1.45,45.1,45.1,0,0,0,8.83,6,14.58,14.58,0,0,0,6.47,7.68a35,35,0,0,0-2.93,2.75,24.2,24.2,0,0,0-2.51,3A4.65,4.65,0,0,0,0,16a1,1,0,0,0,.27.73A.91.91,0,0,0,1,17q.6,0,.78-.33a1.58,1.58,0,0,0,.19-.82,3.9,3.9,0,0,1,.87-2.23A16.48,16.48,0,0,1,5,11.19,31.31,31.31,0,0,1,7.59,9,15.43,15.43,0,0,1,9.74,7.62,48.63,48.63,0,0,1,20.11,3.21,40.13,40.13,0,0,1,31.26,1.75a13.53,13.53,0,0,1,4.09.61,6.46,6.46,0,0,1,3.08,2,5.92,5.92,0,0,1,1.18,3.9,11.39,11.39,0,0,1-1.3,5,23.33,23.33,0,0,1-3.24,4.93,15.52,15.52,0,0,1-3.93,3.42,14.69,14.69,0,0,0-2.26-.52A17.66,17.66,0,0,0,26.55,21a18.84,18.84,0,0,0-3.3.37,20.55,20.55,0,0,0-4,1.15,11.84,11.84,0,0,0-3.39,2,3.6,3.6,0,0,0-1.39,2.81,1.68,1.68,0,0,0,.88,1.51,3.19,3.19,0,0,0,1.72.55,9,9,0,0,0,3.09-.76c1.29-.5,2.65-1.11,4.08-1.81s2.77-1.42,4-2.15,2.2-1.29,2.84-1.69A7.51,7.51,0,0,1,34,24.82,4.43,4.43,0,0,1,35.19,28,8,8,0,0,1,34,31.75a26.91,26.91,0,0,1-3.11,4.41,37.32,37.32,0,0,1-4.17,4.17,27,27,0,0,1-4.39,3.12,7.81,7.81,0,0,1-3.68,1.18,2.25,2.25,0,0,1-.82-.15.62.62,0,0,1-.39-.64,4.26,4.26,0,0,1,1.45-2.93,18.12,18.12,0,0,1,3.57-2.78,45.17,45.17,0,0,1,4.11-2.27,29.17,29.17,0,0,1,3.08-1.33,1.41,1.41,0,0,0,.48-.3.35.35,0,0,0-.3-.28,3.87,3.87,0,0,0-.48,0h-.18a9.32,9.32,0,0,0-2.94.64,26,26,0,0,0-3.71,1.69,24.38,24.38,0,0,0-3.63,2.42,14.94,14.94,0,0,0-2.78,2.87,5.07,5.07,0,0,0-1.09,3,2,2,0,0,0,2.11,2.11,9.76,9.76,0,0,0,4.33-1.3,32.08,32.08,0,0,0,5.17-3.41,46,46,0,0,0,5-4.6,28.45,28.45,0,0,0,3.72-4.9,8.79,8.79,0,0,0,1.42-4.29,5.54,5.54,0,0,0-1.3-3.66,9.11,9.11,0,0,0-3.12-2.39A16.85,16.85,0,0,0,36.74,18.38ZM27.36,24c-1.07.62-2.22,1.24-3.47,1.84S21.46,27,20.35,27.42a7.9,7.9,0,0,1-2.69.64,1.64,1.64,0,0,1-.73-.18.63.63,0,0,1-.36-.61c0-.6.42-1.2,1.27-1.78a16.91,16.91,0,0,1,3.08-1.63,26.65,26.65,0,0,1,3.51-1.21A10.61,10.61,0,0,1,27,22.19a10.37,10.37,0,0,1,2.84.37C29.25,22.92,28.43,23.41,27.36,24Z"/><path d="M47.17,11.73a3.88,3.88,0,0,0,.81-.3,3.23,3.23,0,0,1,1.24-.3c1.25,0,1.88.6,1.88,1.81a2.53,2.53,0,0,1-.67,1.73c-.44.5-.86,1-1.27,1.6-.08.32,0,.48.31.48a1.48,1.48,0,0,0,.54-.3,22.4,22.4,0,0,0,2.09-1.88A3.42,3.42,0,0,0,53,12.09a2.15,2.15,0,0,0-.87-1.69A3.29,3.29,0,0,0,50,9.67a3.48,3.48,0,0,0-2.24.61,2.91,2.91,0,0,0-.9,1.09A.32.32,0,0,0,47.17,11.73Z"/><path d="M92,37.19h-.18c0-.2,0-.49,0-.88s0-.81,0-1.3q0-1.82-.12-4.29c-.09-1.65-.22-3.26-.4-4.81a18.94,18.94,0,0,0-.81-3.9c-.37-1.05-.85-1.57-1.46-1.57a.47.47,0,0,0-.42.18,4.22,4.22,0,0,0-.88-1.33,1.87,1.87,0,0,0-1.42-.6,3.89,3.89,0,0,0-2.84,1.57,19.16,19.16,0,0,0-2.63,4,42.18,42.18,0,0,0-2.18,5.14c-.62,1.79-1.11,3.46-1.48,5a19.57,19.57,0,0,0-.52,3c-.51.87-1,1.65-1.47,2.31s-1,1.09-1.27,1.09-.7-.29-.88-.88a9.11,9.11,0,0,1-.36-1.87c-.06-.67-.09-1.12-.09-1.36,0-1.9.09-3.77.27-5.63s.27-3.71.27-5.56a5.23,5.23,0,0,0-.39-1.72c-.26-.71-.68-1.06-1.24-1.06-.41,0-.93.43-1.57,1.3a30.74,30.74,0,0,0-2.09,3.26c-.75,1.31-1.46,2.67-2.15,4.08S64.52,34.07,64,35.19s-.81,1.92-1,2.36q.36-5.74.36-11.43a22.83,22.83,0,0,0-.15-2.54,7,7,0,0,0-.6-2.26,1.53,1.53,0,0,0-1.48-.94,1.3,1.3,0,0,0-.7.21.65.65,0,0,0-.33.58.88.88,0,0,0,.21.6,3,3,0,0,0,.45.42,2.44,2.44,0,0,1,.4,1.24c.1.67.18,1.41.24,2.24s.1,1.59.12,2.3,0,1.18,0,1.42,0,.49,0,.74l-.07.11c-.42.68-.94,1.53-1.54,2.54s-1.25,2-1.94,3a15.46,15.46,0,0,1-2.11,2.54,3.17,3.17,0,0,1-2.06,1,1.58,1.58,0,0,1-1.48-.79,4.67,4.67,0,0,1-.58-1.78,14.8,14.8,0,0,1-.12-1.73,20.8,20.8,0,0,1,.43-4.14q.42-2.14.81-4.08a16.57,16.57,0,0,0,.4-3.33c0-.8-.39-1.21-1.15-1.21a.51.51,0,0,0-.31.06,1,1,0,0,0,.31-.72,2.56,2.56,0,0,0-1.21-2,3.85,3.85,0,0,0-2.24-.9,3.64,3.64,0,0,0-2.63,1.42,17.34,17.34,0,0,0-2.42,3.47,36.28,36.28,0,0,0-1.9,4c-.53,1.31-.89,2.3-1.09,3a37.44,37.44,0,0,0-1.09,4.81,30.13,30.13,0,0,0-.42,4.86c0,.45,0,1.09.12,1.94a6.65,6.65,0,0,0,.6,2.27,1.6,1.6,0,0,0,1.51,1,2.85,2.85,0,0,0,2-1.15,16.64,16.64,0,0,0,2-2.94c.67-1.19,1.29-2.44,1.88-3.75s1.1-2.52,1.54-3.62.79-1.95,1-2.51a5.17,5.17,0,0,0-.06.84v1a23.12,23.12,0,0,0,.27,3.39,8,8,0,0,0,1.09,3.11,2.64,2.64,0,0,0,2.39,1.3,3.84,3.84,0,0,0,2.21-.94,15.41,15.41,0,0,0,2.47-2.41,29.16,29.16,0,0,0,2.27-3.09c.36-.55.67-1.08.95-1.58-.06,1-.14,2-.25,3a57.85,57.85,0,0,0-.4,6.81,1.3,1.3,0,0,0,.22.75.7.7,0,0,0,.63.33.72.72,0,0,0,.57-.24,2,2,0,0,0,.34-.48c.2-.44.55-1.31,1.06-2.6s1.09-2.75,1.78-4.39,1.38-3.21,2.09-4.74a35.06,35.06,0,0,1,2-3.81c.63-1,1.14-1.51,1.54-1.51.16,0,.27.22.31.66s.07.91.09,1.39,0,.79,0,.91a38.09,38.09,0,0,1-.21,4,35.57,35.57,0,0,0-.22,4,13.75,13.75,0,0,0,.19,2.09,6,6,0,0,0,.75,2.2,1.92,1.92,0,0,0,1.79,1,2.83,2.83,0,0,0,1.9-1.21,16.55,16.55,0,0,0,1.23-1.61c0,.09,0,.16,0,.25a4.17,4.17,0,0,0,.85,1.91,2.29,2.29,0,0,0,1.9.78c.73,0,1.46-.52,2.21-1.57a22.64,22.64,0,0,0,2.17-4c.71-1.61,1.39-3.28,2-5s1.23-3.27,1.75-4.69a17.9,17.9,0,0,1,1.33-3,5.81,5.81,0,0,1,.37,1.75q.18,1.45.3,3.33T90,33c0,1.07,0,1.82,0,2.26L90,37.61a13.94,13.94,0,0,0-4.11,3,30.91,30.91,0,0,0-3.72,4.71,38.93,38.93,0,0,0-3,5.63,36.88,36.88,0,0,0-2,5.8,21.17,21.17,0,0,0-.72,5.14A10.43,10.43,0,0,0,76.59,64a4,4,0,0,0,.84,1.84,2.42,2.42,0,0,0,2,.76,3.54,3.54,0,0,0,2.09-.85,13,13,0,0,0,2.14-2.08,30,30,0,0,0,1.85-2.48,18.1,18.1,0,0,0,1.18-2,43.18,43.18,0,0,0,3.41-9.89A97.42,97.42,0,0,0,91.74,39a1.82,1.82,0,0,0,.54.06c.64,0,1-.3,1-.9a.78.78,0,0,0-.4-.73A1.52,1.52,0,0,0,92,37.19Zm-41.18-13c-.37,1-.82,2.32-1.36,3.87S48.36,31.22,47.71,33s-1.32,3.35-2,4.87a28,28,0,0,1-2,3.71C43,42.51,42.43,43,41.91,43c-.29,0-.5-.24-.64-.7A6,6,0,0,1,41,40.79c0-.55,0-.9,0-1.06a30.58,30.58,0,0,1,1.21-8.59c.16-.56.45-1.41.88-2.54a29,29,0,0,1,1.57-3.47,18.81,18.81,0,0,1,2-3.06,2.85,2.85,0,0,1,2.12-1.27,1.5,1.5,0,0,1,1.21.43,4.83,4.83,0,0,1,.6.87.75.75,0,0,0,.67.46l.36-.06A5.84,5.84,0,0,0,50.86,24.16Zm35.77,2.17c-.43,1.32-.92,2.79-1.49,4.42S84,34,83.33,35.44a27.54,27.54,0,0,1-1.91,3.72c-.62,1-1.2,1.48-1.72,1.48s-.83-.31-.91-.91a11.6,11.6,0,0,1-.12-1.45A12.66,12.66,0,0,1,79,36.1c.15-.3.31-.61.44-.91a6.43,6.43,0,0,0,.66-2.11c0-.08,0-.27-.06-.58a.61.61,0,0,0-.09-.27c.13-.48.27-1,.43-1.48a42.1,42.1,0,0,1,1.75-4.81,19.08,19.08,0,0,1,2.12-3.81,3,3,0,0,1,2.2-1.51.71.71,0,0,1,.73.45,2.65,2.65,0,0,1,.18,1v.76a2.19,2.19,0,0,0,0,.36,1.53,1.53,0,0,0,.15.42C87.34,24.11,87.05,25,86.63,26.33Zm1.78,22.86a38.76,38.76,0,0,1-3.33,9.16c-.2.41-.51,1-.93,1.67s-.91,1.43-1.46,2.17A10.83,10.83,0,0,1,81,64.07a2.6,2.6,0,0,1-1.6.76.89.89,0,0,1-.82-.61,4,4,0,0,1-.33-1.3c0-.46-.06-.82-.06-1.06a17.51,17.51,0,0,1,.66-4.38,38.25,38.25,0,0,1,1.85-5.26,44.5,44.5,0,0,1,2.69-5.29,34,34,0,0,1,3.17-4.51,11.81,11.81,0,0,1,3.36-2.87A72.57,72.57,0,0,1,88.41,49.19Z"/><path d="M125.36,37.19h-.19c0-.2,0-.49,0-.88s0-.81,0-1.3c0-1.21,0-2.64-.13-4.29s-.21-3.26-.39-4.81a18.94,18.94,0,0,0-.81-3.9c-.37-1.05-.85-1.57-1.46-1.57a.47.47,0,0,0-.42.18,4.22,4.22,0,0,0-.88-1.33,1.87,1.87,0,0,0-1.42-.6,3.88,3.88,0,0,0-2.84,1.57,19.16,19.16,0,0,0-2.63,4,42.18,42.18,0,0,0-2.18,5.14,51.42,51.42,0,0,0-1.48,5,16.63,16.63,0,0,0-.54,3.44,11.3,11.3,0,0,0,.21,2.09,4.17,4.17,0,0,0,.85,1.91,2.29,2.29,0,0,0,1.9.78c.73,0,1.46-.52,2.21-1.57a22.64,22.64,0,0,0,2.17-4c.71-1.61,1.39-3.28,2-5s1.23-3.27,1.75-4.69a17.9,17.9,0,0,1,1.33-3,5.81,5.81,0,0,1,.37,1.75q.18,1.45.3,3.33t.15,3.48c0,1.07,0,1.82,0,2.26l-.06,2.36a13.94,13.94,0,0,0-4.11,3,30.91,30.91,0,0,0-3.72,4.71,38.93,38.93,0,0,0-3,5.63,36.88,36.88,0,0,0-2,5.8,21.23,21.23,0,0,0-.73,5.14,10.46,10.46,0,0,0,.22,2.12,4,4,0,0,0,.84,1.84,2.42,2.42,0,0,0,2,.76,3.49,3.49,0,0,0,2.08-.85A13.08,13.08,0,0,0,117,63.71a30,30,0,0,0,1.85-2.48,16.35,16.35,0,0,0,1.17-2,43.21,43.21,0,0,0,3.42-9.89A94.87,94.87,0,0,0,125.05,39a1.9,1.9,0,0,0,.55.06c.64,0,1-.3,1-.9a.8.8,0,0,0-.4-.73A1.52,1.52,0,0,0,125.36,37.19Zm-5.42-10.86c-.42,1.32-.91,2.79-1.48,4.42s-1.17,3.2-1.81,4.69a27.54,27.54,0,0,1-1.91,3.72c-.62,1-1.2,1.48-1.72,1.48s-.83-.31-.91-.91a11.6,11.6,0,0,1-.12-1.45,15.18,15.18,0,0,1,.46-3c.3-1.37.7-2.9,1.21-4.57a42.1,42.1,0,0,1,1.75-4.81,19.08,19.08,0,0,1,2.12-3.81,3,3,0,0,1,2.2-1.51.71.71,0,0,1,.73.45,2.65,2.65,0,0,1,.18,1v.76a2.19,2.19,0,0,0,0,.36,1.53,1.53,0,0,0,.15.42C120.66,24.11,120.37,25,119.94,26.33Zm1.79,22.86a38.76,38.76,0,0,1-3.33,9.16c-.2.41-.51,1-.94,1.67s-.9,1.43-1.45,2.17a10.83,10.83,0,0,1-1.69,1.88,2.6,2.6,0,0,1-1.6.76.88.88,0,0,1-.82-.61,4,4,0,0,1-.33-1.3c0-.46-.06-.82-.06-1.06a17.51,17.51,0,0,1,.66-4.38A38.25,38.25,0,0,1,114,52.22a43.05,43.05,0,0,1,2.69-5.29,33.11,33.11,0,0,1,3.17-4.51,11.81,11.81,0,0,1,3.36-2.87A72.57,72.57,0,0,1,121.73,49.19Z"/><path d="M133.7,19.86a1.47,1.47,0,0,0,.79.22,1,1,0,0,0,1.09-.73c.12-.36.25-.85.39-1.45a12.28,12.28,0,0,1,.54-1.75,2.26,2.26,0,0,1,.82-1.15,1.29,1.29,0,0,0,.79-1.15c0-.4-.17-.61-.49-.61a2.16,2.16,0,0,0-1.36.73,9.83,9.83,0,0,0-1.42,1.75,13.47,13.47,0,0,0-1.09,2,4.33,4.33,0,0,0-.42,1.48A.68.68,0,0,0,133.7,19.86Z"/><path d="M149.3,16.57a.62.62,0,0,0,.24.12,1.18,1.18,0,0,0,.31-.12q2.47-1.87,4.44-3.27c1.31-.92,2-1.67,2-2.23a.7.7,0,0,0-.37-.61.8.8,0,0,0-.48-.18,1.46,1.46,0,0,0-.88.36,10.7,10.7,0,0,0-.87.79c-.49.56-1,1.15-1.67,1.75l-1.69,1.64a13.78,13.78,0,0,0-1,1,.91.91,0,0,0-.18.55S149.18,16.49,149.3,16.57Z"/><path d="M163.45,29.21c-.16,0-.45.34-.87,1s-.94,1.53-1.55,2.54-1.25,2-1.93,3A15.48,15.48,0,0,1,157,38.34a3.13,3.13,0,0,1-2,1,1.6,1.6,0,0,1-1.49-.79,4.66,4.66,0,0,1-.57-1.78,14.8,14.8,0,0,1-.12-1.73,21.54,21.54,0,0,1,.42-4.14c.28-1.43.56-2.79.82-4.08a17.23,17.23,0,0,0,.39-3.33c0-.8-.38-1.21-1.15-1.21a.47.47,0,0,0-.3.06,1,1,0,0,0,.3-.72,2.53,2.53,0,0,0-1.21-2,3.83,3.83,0,0,0-2.23-.9,3.63,3.63,0,0,0-2.63,1.42,16.94,16.94,0,0,0-2.42,3.47,38.31,38.31,0,0,0-1.91,4c-.11.28-.22.54-.31.8,0,0,0,0,0-.08a.38.38,0,0,0-.39-.21c-.16,0-.47.44-.91,1.33s-1,2-1.63,3.3-1.34,2.62-2.09,3.93A23.39,23.39,0,0,1,135.27,40a2.87,2.87,0,0,1-2,1.33c-.45,0-.77-.29-1-.87a8.08,8.08,0,0,1-.39-1.91c-.06-.68-.09-1.17-.09-1.45a17,17,0,0,1,.45-3.66c.3-1.35.64-2.69,1-4s.71-2.52,1-3.57a10.07,10.07,0,0,0,.42-2.3,1,1,0,0,0-.36-.78,1.3,1.3,0,0,0-.85-.3c-.4,0-.79.42-1.15,1.26a17.66,17.66,0,0,0-.94,3.21q-.39,1.94-.66,4c-.18,1.35-.32,2.57-.43,3.66s-.15,1.83-.15,2.24a20.8,20.8,0,0,0,.19,2.51,7.29,7.29,0,0,0,.84,2.72,2.22,2.22,0,0,0,2.06,1.18A3.32,3.32,0,0,0,135.33,42,21.4,21.4,0,0,0,137.81,39a37.28,37.28,0,0,0,2.36-3.87c.33-.62.63-1.21.9-1.79-.15.7-.29,1.41-.41,2.16a29.09,29.09,0,0,0-.43,4.86c0,.45,0,1.09.12,1.94a6.44,6.44,0,0,0,.61,2.27,1.59,1.59,0,0,0,1.51,1,2.83,2.83,0,0,0,2-1.15,16.13,16.13,0,0,0,2-2.94c.67-1.19,1.29-2.44,1.88-3.75s1.09-2.52,1.54-3.62.78-1.95,1-2.51a4.24,4.24,0,0,0-.06.84v1a23.12,23.12,0,0,0,.27,3.39,7.86,7.86,0,0,0,1.09,3.11,2.63,2.63,0,0,0,2.38,1.3,3.81,3.81,0,0,0,2.21-.94,15.44,15.44,0,0,0,2.48-2.41,30.62,30.62,0,0,0,2.27-3.09,25.79,25.79,0,0,0,1.66-3,5.4,5.4,0,0,0,.64-2.09C163.88,29.39,163.73,29.21,163.45,29.21ZM151.9,24.16c-.36,1-.81,2.32-1.36,3.87s-1.14,3.19-1.78,4.93-1.32,3.35-2,4.87a28.09,28.09,0,0,1-2,3.71c-.65,1-1.23,1.46-1.76,1.46-.28,0-.49-.24-.63-.7a6,6,0,0,1-.24-1.51c0-.55,0-.9,0-1.06a30.94,30.94,0,0,1,1.2-8.59c.17-.56.46-1.41.88-2.54a32.59,32.59,0,0,1,1.57-3.47,18.82,18.82,0,0,1,2-3.06,2.83,2.83,0,0,1,2.12-1.27,1.51,1.51,0,0,1,1.21.43,4.83,4.83,0,0,1,.6.87.73.73,0,0,0,.67.46l.36-.06A6,6,0,0,0,151.9,24.16Z"/><path d="M196.65,34.23c-.24,0-.56.39-1,1.18s-.85,1.69-1.36,2.72a21.25,21.25,0,0,1-1.57,2.72c-.54.78-1.1,1.18-1.66,1.18s-.86-.36-1.12-1.09a13.12,13.12,0,0,1-.61-2.63,25.91,25.91,0,0,1-.24-2.9c0-.91,0-1.53,0-1.85q0-2,.09-4.29a22.4,22.4,0,0,1,.52-4.17,6.63,6.63,0,0,1,.42-1.39c.2-.49.38-.93.54-1.34.25-.64.56-1.58.94-2.81s.76-2.55,1.12-4,.68-2.73.94-4a14.83,14.83,0,0,0,.39-2.81,4.4,4.4,0,0,0-.15-1,.71.71,0,0,0-.76-.6c-.52,0-1,.35-1.42,1a11.43,11.43,0,0,0-1,2.33c-.26.85-.43,1.45-.51,1.82-.52,2.29-1,4.41-1.33,6.35s-.75,3.79-1.15,5.56a53.17,53.17,0,0,1-1.57,5.47,48.79,48.79,0,0,1-2.66,6.14c-.16.28-.45.73-.85,1.33s-.86,1.24-1.36,1.91a11.33,11.33,0,0,1-1.51,1.66,2.16,2.16,0,0,1-1.3.66,1.13,1.13,0,0,1-1.18-1.06,9.11,9.11,0,0,1-.21-1.72,14.5,14.5,0,0,1,.36-2.66,34.45,34.45,0,0,1,1-3.81,36.12,36.12,0,0,1,1.54-4,13.4,13.4,0,0,1,1.91-3.11A2.83,2.83,0,0,1,184,24c.49,0,.77.16.85.48a5.48,5.48,0,0,1,.15,1q0,.51.45.51c.61,0,.91-.26.91-.78a4.31,4.31,0,0,0-.51-2.09,1.94,1.94,0,0,0-1.85-.94,3,3,0,0,0-1.9.85,12.74,12.74,0,0,0-1.94,2.09,27.78,27.78,0,0,0-1.66,2.44c-.48.81-.85,1.46-1.09,1.94a19,19,0,0,0-1.6,4.47,20.9,20.9,0,0,0-.64,4.72,7.55,7.55,0,0,0,.64,3,2.46,2.46,0,0,0,2.51,1.49,4,4,0,0,0,2.84-1.45,19,19,0,0,0,2.6-3.51,45,45,0,0,0,2.15-4.11c.62-1.38,1.12-2.44,1.48-3.21a5.52,5.52,0,0,0-.06.88V32.9c0,1,0,2.06.15,3.29a24.7,24.7,0,0,0,.54,3.54,8.55,8.55,0,0,0,1.15,2.81,2.24,2.24,0,0,0,1.91,1.12c.44,0,1-.37,1.66-1.12a25.8,25.8,0,0,0,2.06-2.66,23.75,23.75,0,0,0,1.75-3,5.66,5.66,0,0,0,.69-2Q197.25,34.23,196.65,34.23Z"/><path d="M200.7,19.86a1.47,1.47,0,0,0,.79.22,1,1,0,0,0,1.09-.73c.12-.36.25-.85.39-1.45a12.28,12.28,0,0,1,.54-1.75,2.32,2.32,0,0,1,.82-1.15,1.29,1.29,0,0,0,.79-1.15c0-.4-.17-.61-.49-.61a2.16,2.16,0,0,0-1.36.73,9.83,9.83,0,0,0-1.42,1.75,13.47,13.47,0,0,0-1.09,2,4.33,4.33,0,0,0-.42,1.48A.68.68,0,0,0,200.7,19.86Z"/><path d="M200.1,46.87l-.52,0L199,47a5.26,5.26,0,0,0-.61.48,1.31,1.31,0,0,0-.48,1,2.2,2.2,0,0,0,.51,1.33c.35.44.66.6.94.48a2.51,2.51,0,0,0,1.18-.87,3.35,3.35,0,0,0,.45-1.06,3.8,3.8,0,0,0,.13-.67C201.13,47.15,200.78,46.87,200.1,46.87Z"/><path d="M221.93,29.57c-.16,0-.46.39-.88,1.18s-1,1.77-1.6,3-1.36,2.37-2.15,3.54a16,16,0,0,1-2.45,2.93,3.74,3.74,0,0,1-2.54,1.18,2,2,0,0,1-1.78-1,6.32,6.32,0,0,1-.85-2.32,14.09,14.09,0,0,1-.21-2.15,20.85,20.85,0,0,1,.27-2.75c.18-1.23.43-2.59.73-4.08a36.71,36.71,0,0,1,1.15-4.36A21.1,21.1,0,0,1,213.16,21a3.89,3.89,0,0,1,1.81-1.9c.25,0,.41.23.49.69a6.86,6.86,0,0,1,.12,1c0,.2,0,.5-.06.88a12,12,0,0,0-.06,1.24,3.89,3.89,0,0,0,.18,1.21.74.74,0,0,0,.78.54,1.14,1.14,0,0,0,.7-.33.89.89,0,0,0,.39-.63V21.86a18.24,18.24,0,0,0-.15-2.3,4.92,4.92,0,0,0-.63-2,1.65,1.65,0,0,0-1.51-.79,3.42,3.42,0,0,0-2.67,1.6,15.76,15.76,0,0,0-2.11,4.09,43.8,43.8,0,0,0-1.54,5.14c-.09.35-.17.7-.24,1s-.28.48-.46.83c-.44.89-1,2-1.63,3.3s-1.34,2.62-2.09,3.93A22.56,22.56,0,0,1,202.27,40a2.87,2.87,0,0,1-2,1.33c-.45,0-.77-.29-1-.87a8.08,8.08,0,0,1-.39-1.91c-.06-.68-.09-1.17-.09-1.45a17,17,0,0,1,.45-3.66c.3-1.35.64-2.69,1-4s.71-2.52,1-3.57a10.07,10.07,0,0,0,.42-2.3,1,1,0,0,0-.36-.78,1.3,1.3,0,0,0-.85-.3c-.4,0-.79.42-1.15,1.26a17.66,17.66,0,0,0-.94,3.21q-.39,1.94-.66,4t-.42,3.66c-.1,1.09-.16,1.83-.16,2.24a20.8,20.8,0,0,0,.19,2.51,7.29,7.29,0,0,0,.84,2.72,2.22,2.22,0,0,0,2.06,1.18A3.32,3.32,0,0,0,202.33,42,21.4,21.4,0,0,0,204.81,39a37.28,37.28,0,0,0,2.36-3.87c.23-.42.42-.82.62-1.22a17.05,17.05,0,0,0-.13,1.86,13.23,13.23,0,0,0,.42,3.11,7.25,7.25,0,0,0,1.45,3,3.51,3.51,0,0,0,2.84,1.24,4.85,4.85,0,0,0,3.18-1.43,17.76,17.76,0,0,0,3-3.5A32.46,32.46,0,0,0,220.9,34a22.54,22.54,0,0,0,1.33-3.39l.06-.24a1,1,0,0,0,0-.49A.33.33,0,0,0,221.93,29.57Z"/><path d="M241.1,33.38c-.12,0-.31.23-.55.7l-.81,1.57a10.84,10.84,0,0,1-1,1.57,1.49,1.49,0,0,1-1.09.7c-.24,0-.43-.33-.57-1a12,12,0,0,1-.28-2c0-.7-.06-1.14-.06-1.3a32,32,0,0,1,.37-4.9,32.72,32.72,0,0,0,.36-4.83,6.5,6.5,0,0,0-.33-1.91,1.39,1.39,0,0,0-1.43-1.06,3.61,3.61,0,0,0-2.35,1.42A25.17,25.17,0,0,0,230.6,26q-1.41,2.25-2.66,4.66c-.82,1.61-1.54,3.08-2.14,4.41a26.93,26.93,0,0,0-1.21,3,45.76,45.76,0,0,1-.36-5.75A54.79,54.79,0,0,1,225.5,20.5,49.86,49.86,0,0,1,228,12.31q1.56-3.84,3.32-7.89a2,2,0,0,0,.24-.85.75.75,0,0,0-.3-.64,1.13,1.13,0,0,0-.66-.21,1.36,1.36,0,0,0-1.27.73,35.76,35.76,0,0,0-3.15,7.16,61.21,61.21,0,0,0-2,8.29q-.76,4.32-1.09,8.52t-.34,7.9c0,.28,0,.85,0,1.72s.1,1.79.22,2.78a12.61,12.61,0,0,0,.54,2.54c.24.71.61,1.06,1.09,1.06a.92.92,0,0,0,.88-.55,3.18,3.18,0,0,0,.33-1,34.72,34.72,0,0,1,1.57-5.6A48.68,48.68,0,0,1,230,30.42a31.17,31.17,0,0,1,3.11-4.9L234,24.4c.44-.54.79-.82,1-.82s.26.12.3.34a3.85,3.85,0,0,1,.06.69v.49q0,2.17-.21,4.35T235,33.8c0,.37,0,.87.09,1.52a14.74,14.74,0,0,0,.33,2,4.91,4.91,0,0,0,.76,1.75,1.57,1.57,0,0,0,1.36.73,2.45,2.45,0,0,0,1.81-1.12,10.16,10.16,0,0,0,1.49-2.48,6,6,0,0,0,.57-2.14,2.13,2.13,0,0,0-.06-.4Q241.28,33.38,241.1,33.38Z"/><path d="M275.93,45.47l-.52,0a4.28,4.28,0,0,0-.57.1,5.26,5.26,0,0,0-.61.48,1.31,1.31,0,0,0-.48,1,2.2,2.2,0,0,0,.51,1.33c.35.44.66.6.94.48a2.51,2.51,0,0,0,1.18-.88,3.21,3.21,0,0,0,.45-1,3.49,3.49,0,0,0,.12-.67C277,45.76,276.61,45.47,275.93,45.47Z"/><path d="M287.48,32.66c-.16,0-.41.3-.73.9s-.72,1.31-1.18,2.12a13.06,13.06,0,0,1-1.48,2.11,2.15,2.15,0,0,1-1.57.91,1.06,1.06,0,0,1-1-.66A5.69,5.69,0,0,1,281,36.4a12,12,0,0,1-.15-1.84V31.93a32.75,32.75,0,0,1,.42-5.17,29.35,29.35,0,0,0,.42-4.51q0-1.08-.9-1.08a1,1,0,0,0-.91.72,10.26,10.26,0,0,0-.61,2.69c-.08.91-.21,1.89-.39,2.93A14.18,14.18,0,0,1,277.8,31c-.16.36-.49,1.06-1,2.09s-1.06,2.13-1.69,3.32a30.28,30.28,0,0,1-1.81,3.06c-.59.84-1.06,1.27-1.42,1.27s-.52-.22-.7-.67a6.35,6.35,0,0,1-.39-1.6c-.08-.62-.13-1.21-.15-1.75s0-.9,0-1.06a22.16,22.16,0,0,1,.43-4.3c.28-1.41.56-2.82.85-4.23a22,22,0,0,0,.42-4.29,4.22,4.22,0,0,0-.15-1.06.75.75,0,0,0-.82-.57.47.47,0,0,0-.48.27h0a.51.51,0,0,0-.42-.16c-.28,0-.71.44-1.3,1.33s-1.24,2-2,3.35-1.44,2.75-2.15,4.2-1.32,2.76-1.84,3.91-.89,1.94-1.09,2.38c0-.4-.14-1.13-.3-2.2s-.36-2.29-.61-3.66-.54-2.7-.9-4a17.69,17.69,0,0,0-1.21-3.21c-.45-.84-.93-1.27-1.46-1.27a3,3,0,0,0-.84.12c-.28.08-.43.33-.43.73a.76.76,0,0,0,.19.51,3.22,3.22,0,0,0,.42.4,4,4,0,0,1,1,1.66,22.94,22.94,0,0,1,.93,3.08c.29,1.19.54,2.4.76,3.63s.39,2.33.51,3.3a17.44,17.44,0,0,1,.19,2.11,14.82,14.82,0,0,1-.16,2.09,14.9,14.9,0,0,0-.15,2.09,2.24,2.24,0,0,0,.15.81.67.67,0,0,0,.7.4.76.76,0,0,0,.61-.22,1.81,1.81,0,0,0,.3-.51c.8-2.26,1.63-4.45,2.48-6.59S266,31.45,267,29.27l3.59-6.75c0,.46-.06.93-.09,1.37,0,.6-.1,1.23-.18,1.87q-.24,1.88-.66,3.72c-.28,1.23-.51,2.47-.67,3.72,0,.4-.07.81-.09,1.21s0,.81,0,1.21,0,1,.09,1.78a12.91,12.91,0,0,0,.4,2.3,5.76,5.76,0,0,0,.87,2,1.83,1.83,0,0,0,1.54.78,2.64,2.64,0,0,0,1.85-1A11.74,11.74,0,0,0,275.44,39,32.24,32.24,0,0,0,277,35.83c.49-1.11.91-2.14,1.28-3.08s.62-1.67.78-2.15v2.51a20.75,20.75,0,0,0,.27,3.29,8,8,0,0,0,1,2.85,2.29,2.29,0,0,0,2.09,1.15,2.63,2.63,0,0,0,1.6-.91,14.55,14.55,0,0,0,1.81-2.18,18,18,0,0,0,1.45-2.45,4.5,4.5,0,0,0,.58-1.72Q287.84,32.66,287.48,32.66Z"/></g></g></svg>